<svg width="1440" height="289" viewBox="0 0 1440 289" fill="none" xmlns="http://www.w3.org/2000/svg">
<g clip-path="url(#clip0_240_268)">
<path d="M186.212 140.696C190.337 151.131 192.4 162.415 192.4 174.548C192.4 187.409 190.216 199.179 185.848 209.856C181.48 220.533 175.171 229.633 166.92 237.156C158.912 244.436 148.235 250.381 134.888 254.992C122.755 259.117 107.831 261.18 90.116 261.18H57.72V317.964L68.64 319.784C69.8533 320.027 70.824 320.269 71.552 320.512C72.5227 320.755 73.372 320.876 74.1 320.876L76.284 321.24C82.3507 322.696 85.384 326.457 85.384 332.524V354H-18.72V332.524C-18.72 326.457 -15.6867 322.696 -9.62 321.24L-7.436 320.876L-1.976 319.784L8.944 317.964V126.864L-1.976 125.044C-3.18933 124.801 -4.28133 124.559 -5.252 124.316C-5.98 124.073 -6.708 123.952 -7.436 123.952L-9.62 123.588C-15.6867 122.132 -18.72 118.371 -18.72 112.304V90.828H90.116C107.588 90.828 122.876 92.8907 135.98 97.016C148.113 100.899 158.669 106.723 167.648 114.488C175.899 121.768 182.087 130.504 186.212 140.696ZM139.984 194.932C142.168 189.108 143.26 182.313 143.26 174.548C143.26 167.753 142.168 161.444 139.984 155.62C137.8 150.039 134.524 145.185 130.156 141.06C126.031 137.177 120.571 134.144 113.776 131.96C107.224 129.776 99.3373 128.684 90.116 128.684H57.72V222.96H90.116C99.3373 222.96 107.224 221.868 113.776 219.684C120.571 217.257 126.031 214.103 130.156 210.22C134.524 206.337 137.8 201.241 139.984 194.932ZM296.225 164.356C309.572 164.356 322.191 166.661 334.081 171.272C345.729 175.883 355.436 182.192 363.201 190.2C370.967 198.208 377.033 208.279 381.401 220.412C385.769 232.303 387.953 245.528 387.953 260.088C387.953 274.648 385.769 287.995 381.401 300.128C376.791 312.504 370.724 322.696 363.201 330.704C355.193 339.197 345.487 345.628 334.081 349.996C322.919 354.364 310.3 356.548 296.225 356.548C282.151 356.548 269.411 354.364 258.005 349.996C246.6 345.628 236.893 339.197 228.885 330.704C220.392 321.968 214.083 311.776 209.957 300.128C205.589 287.995 203.405 274.648 203.405 260.088C203.405 245.528 205.589 232.303 209.957 220.412C214.083 209.249 220.392 199.179 228.885 190.2C236.651 182.192 246.357 175.883 258.005 171.272C269.896 166.661 282.636 164.356 296.225 164.356ZM296.225 321.968C311.756 321.968 323.161 316.751 330.441 306.316C337.964 295.396 341.725 280.108 341.725 260.452C341.725 240.796 337.964 225.508 330.441 214.588C323.161 203.911 311.756 198.572 296.225 198.572C280.695 198.572 269.047 203.911 261.281 214.588C253.516 225.265 249.633 240.675 249.633 260.816C249.633 280.472 253.516 295.639 261.281 306.316C268.804 316.751 280.452 321.968 296.225 321.968ZM524.485 163.992C533.949 163.992 541.593 166.055 547.417 170.18L541.593 204.032C541.35 206.216 540.622 207.672 539.409 208.4C537.953 209.371 536.254 209.856 534.313 209.856C532.614 209.856 530.187 209.492 527.033 208.764C522.665 207.793 518.418 207.308 514.293 207.308C504.829 207.308 496.821 209.856 490.269 214.952C484.202 219.563 478.621 227.207 473.525 237.884V317.964L491.725 321.24C497.791 322.696 500.825 326.457 500.825 332.524V354H401.089V332.524C401.089 326.457 404.122 322.696 410.189 321.24L428.389 317.964V203.304L410.189 200.028C404.122 198.572 401.089 194.811 401.089 188.744V167.268H454.961C459.571 167.268 462.726 168.117 464.425 169.816C466.123 171.515 467.337 174.427 468.065 178.552L470.977 201.12C477.529 189.229 485.294 180.129 494.273 173.82C503.494 167.268 513.565 163.992 524.485 163.992ZM635.34 356.912C619.081 356.912 606.584 352.301 597.848 343.08C589.112 333.859 584.744 321.24 584.744 305.224V201.12H565.816C563.874 201.12 561.812 200.271 559.628 198.572C557.686 197.116 556.716 194.811 556.716 191.656V173.456L586.928 168.724L596.392 117.764C596.634 115.58 597.726 113.76 599.668 112.304C601.609 110.848 603.914 110.12 606.584 110.12H629.88V169.088H679.02V201.12H629.88V302.312C629.88 307.893 631.336 312.383 634.248 315.78C637.16 318.935 641.042 320.512 645.896 320.512C649.293 320.512 651.598 320.269 652.812 319.784L657.544 317.6L661.548 315.416C662.276 314.931 663.246 314.688 664.46 314.688C666.401 314.688 667.614 314.931 668.1 315.416L670.648 318.328L684.116 340.168C677.806 345.264 670.284 349.389 661.548 352.544C653.297 355.456 644.561 356.912 635.34 356.912ZM768.572 139.24C766.874 144.821 766.024 150.524 766.024 156.348V168.724H814.8V200.756H767.844V317.964L778.764 319.784C779.978 320.027 781.07 320.269 782.04 320.512C783.254 320.755 784.346 320.876 785.316 320.876L788.228 321.24C794.295 322.696 797.328 326.457 797.328 332.524V354H695.044V332.524C695.044 326.457 698.078 322.696 704.144 321.24C705.115 321.24 705.964 321.119 706.692 320.876L712.152 319.784L722.708 317.964V201.12L706.692 198.572C702.81 197.844 699.898 196.631 697.956 194.932C696.015 193.233 695.044 190.685 695.044 187.288V169.088H722.708V155.256C722.708 144.093 724.286 134.508 727.44 126.5C731.08 117.279 735.691 109.999 741.272 104.66C747.582 98.836 754.862 94.3466 763.112 91.192C771.606 88.0373 781.312 86.46 792.232 86.46C800.968 86.46 808.976 87.552 816.256 89.736L815.528 112.304C815.286 115.944 813.587 118.128 810.432 118.856C806.55 119.827 803.031 120.312 799.876 120.312C794.052 120.312 789.32 120.797 785.68 121.768C781.798 122.739 778.279 124.801 775.124 127.956C772.212 130.868 770.028 134.629 768.572 139.24ZM920.784 164.356C934.131 164.356 946.749 166.661 958.64 171.272C970.288 175.883 979.995 182.192 987.76 190.2C995.525 198.208 1001.59 208.279 1005.96 220.412C1010.33 232.303 1012.51 245.528 1012.51 260.088C1012.51 274.648 1010.33 287.995 1005.96 300.128C1001.35 312.504 995.283 322.696 987.76 330.704C979.752 339.197 970.045 345.628 958.64 349.996C947.477 354.364 934.859 356.548 920.784 356.548C906.709 356.548 893.969 354.364 882.564 349.996C871.159 345.628 861.452 339.197 853.444 330.704C844.951 321.968 838.641 311.776 834.516 300.128C830.148 287.995 827.964 274.648 827.964 260.088C827.964 245.528 830.148 232.303 834.516 220.412C838.641 209.249 844.951 199.179 853.444 190.2C861.209 182.192 870.916 175.883 882.564 171.272C894.455 166.661 907.195 164.356 920.784 164.356ZM920.784 321.968C936.315 321.968 947.72 316.751 955 306.316C962.523 295.396 966.284 280.108 966.284 260.452C966.284 240.796 962.523 225.508 955 214.588C947.72 203.911 936.315 198.572 920.784 198.572C905.253 198.572 893.605 203.911 885.84 214.588C878.075 225.265 874.192 240.675 874.192 260.816C874.192 280.472 878.075 295.639 885.84 306.316C893.363 316.751 905.011 321.968 920.784 321.968ZM1116.28 321.24C1122.35 322.696 1125.38 326.457 1125.38 332.524V354H1025.28V332.524C1025.28 326.457 1028.32 322.696 1034.38 321.24L1036.57 320.876L1042.03 319.784L1052.95 317.964V119.584L1042.03 117.764C1040.81 117.521 1039.72 117.279 1038.75 117.036C1038.02 116.793 1037.3 116.672 1036.57 116.672L1034.38 116.308C1028.32 114.852 1025.28 111.091 1025.28 105.024V83.548H1097.72V317.964L1108.64 319.784L1114.1 320.876L1116.28 321.24ZM1217.31 112.668C1217.31 116.065 1216.46 119.705 1214.76 123.588C1213.31 126.985 1211.24 130.019 1208.57 132.688C1205.66 135.6 1202.63 137.663 1199.47 138.876C1195.83 140.332 1192.07 141.06 1188.19 141.06C1184.31 141.06 1180.55 140.332 1176.91 138.876C1173.99 137.663 1171.08 135.6 1168.17 132.688C1165.5 130.019 1163.44 126.985 1161.98 123.588C1160.53 120.191 1159.8 116.551 1159.8 112.668C1159.8 108.785 1160.53 105.024 1161.98 101.384C1163.2 98.2293 1165.26 95.196 1168.17 92.284C1170.84 89.6147 1173.75 87.6733 1176.91 86.46C1181.27 84.7613 1185.04 83.912 1188.19 83.912C1191.34 83.912 1195.11 84.7613 1199.47 86.46C1203.11 87.916 1206.15 89.8573 1208.57 92.284C1211.49 95.196 1213.55 98.2293 1214.76 101.384C1216.46 105.509 1217.31 109.271 1217.31 112.668ZM1228.96 321.24C1235.02 322.696 1238.06 326.457 1238.06 332.524V354H1137.96V332.524C1137.96 326.457 1140.99 322.696 1147.06 321.24L1149.24 320.876L1154.7 319.784L1165.62 317.964V203.304L1154.7 201.484C1153.49 201.241 1152.4 200.999 1151.43 200.756C1150.7 200.513 1149.97 200.392 1149.24 200.392L1147.06 200.028C1140.99 198.572 1137.96 194.811 1137.96 188.744V167.268H1210.39V317.964L1221.31 319.784C1222.53 320.027 1223.5 320.269 1224.23 320.512C1225.2 320.755 1226.05 320.876 1226.77 320.876L1228.96 321.24ZM1342.37 164.356C1355.72 164.356 1368.34 166.661 1380.23 171.272C1391.87 175.883 1401.58 182.192 1409.35 190.2C1417.11 198.208 1423.18 208.279 1427.55 220.412C1431.91 232.303 1434.1 245.528 1434.1 260.088C1434.1 274.648 1431.91 287.995 1427.55 300.128C1422.94 312.504 1416.87 322.696 1409.35 330.704C1401.34 339.197 1391.63 345.628 1380.23 349.996C1369.06 354.364 1356.44 356.548 1342.37 356.548C1328.3 356.548 1315.56 354.364 1304.15 349.996C1292.74 345.628 1283.04 339.197 1275.03 330.704C1266.54 321.968 1260.23 311.776 1256.1 300.128C1251.73 287.995 1249.55 274.648 1249.55 260.088C1249.55 245.528 1251.73 232.303 1256.1 220.412C1260.23 209.249 1266.54 199.179 1275.03 190.2C1282.8 182.192 1292.5 175.883 1304.15 171.272C1316.04 166.661 1328.78 164.356 1342.37 164.356ZM1342.37 321.968C1357.9 321.968 1369.31 316.751 1376.59 306.316C1384.11 295.396 1387.87 280.108 1387.87 260.452C1387.87 240.796 1384.11 225.508 1376.59 214.588C1369.31 203.911 1357.9 198.572 1342.37 198.572C1326.84 198.572 1315.19 203.911 1307.43 214.588C1299.66 225.265 1295.78 240.675 1295.78 260.816C1295.78 280.472 1299.66 295.639 1307.43 306.316C1314.95 316.751 1326.6 321.968 1342.37 321.968Z" fill="black"/>
</g>
<defs>
<clipPath id="clip0_240_268">
<rect width="1440" height="289" fill="white"/>
</clipPath>
</defs>
</svg>
