<svg width="1440" height="289" viewBox="0 0 1440 289" fill="none" xmlns="http://www.w3.org/2000/svg">
<g clip-path="url(#clip0_240_268)">
<path d="M195.212 140.696C199.337 151.131 201.4 162.415 201.4 174.548C201.4 187.409 199.216 199.179 194.848 209.856C190.48 220.533 184.171 229.633 175.92 237.156C167.912 244.436 157.235 250.381 143.888 254.992C131.755 259.117 116.831 261.18 99.116 261.18H66.72V317.964L77.64 319.784C78.8533 320.027 79.824 320.269 80.552 320.512C81.5227 320.755 82.372 320.876 83.1 320.876L85.284 321.24C91.3507 322.696 94.384 326.457 94.384 332.524V354H-9.72V332.524C-9.72 326.457 -6.68667 322.696 -0.619999 321.24L1.564 320.876L7.024 319.784L17.944 317.964V126.864L7.024 125.044C5.81067 124.801 4.71867 124.559 3.748 124.316C3.02 124.073 2.292 123.952 1.564 123.952L-0.619999 123.588C-6.68667 122.132 -9.72 118.371 -9.72 112.304V90.828H99.116C116.588 90.828 131.876 92.8907 144.98 97.016C157.113 100.899 167.669 106.723 176.648 114.488C184.899 121.768 191.087 130.504 195.212 140.696ZM148.984 194.932C151.168 189.108 152.26 182.313 152.26 174.548C152.26 167.753 151.168 161.444 148.984 155.62C146.8 150.039 143.524 145.185 139.156 141.06C135.031 137.177 129.571 134.144 122.776 131.96C116.224 129.776 108.337 128.684 99.116 128.684H66.72V222.96H99.116C108.337 222.96 116.224 221.868 122.776 219.684C129.571 217.257 135.031 214.103 139.156 210.22C143.524 206.337 146.8 201.241 148.984 194.932ZM305.225 164.356C318.572 164.356 331.191 166.661 343.081 171.272C354.729 175.883 364.436 182.192 372.201 190.2C379.967 198.208 386.033 208.279 390.401 220.412C394.769 232.303 396.953 245.528 396.953 260.088C396.953 274.648 394.769 287.995 390.401 300.128C385.791 312.504 379.724 322.696 372.201 330.704C364.193 339.197 354.487 345.628 343.081 349.996C331.919 354.364 319.3 356.548 305.225 356.548C291.151 356.548 278.411 354.364 267.005 349.996C255.6 345.628 245.893 339.197 237.885 330.704C229.392 321.968 223.083 311.776 218.957 300.128C214.589 287.995 212.405 274.648 212.405 260.088C212.405 245.528 214.589 232.303 218.957 220.412C223.083 209.249 229.392 199.179 237.885 190.2C245.651 182.192 255.357 175.883 267.005 171.272C278.896 166.661 291.636 164.356 305.225 164.356ZM305.225 321.968C320.756 321.968 332.161 316.751 339.441 306.316C346.964 295.396 350.725 280.108 350.725 260.452C350.725 240.796 346.964 225.508 339.441 214.588C332.161 203.911 320.756 198.572 305.225 198.572C289.695 198.572 278.047 203.911 270.281 214.588C262.516 225.265 258.633 240.675 258.633 260.816C258.633 280.472 262.516 295.639 270.281 306.316C277.804 316.751 289.452 321.968 305.225 321.968ZM533.485 163.992C542.949 163.992 550.593 166.055 556.417 170.18L550.593 204.032C550.35 206.216 549.622 207.672 548.409 208.4C546.953 209.371 545.254 209.856 543.313 209.856C541.614 209.856 539.187 209.492 536.033 208.764C531.665 207.793 527.418 207.308 523.293 207.308C513.829 207.308 505.821 209.856 499.269 214.952C493.202 219.563 487.621 227.207 482.525 237.884V317.964L500.725 321.24C506.791 322.696 509.825 326.457 509.825 332.524V354H410.089V332.524C410.089 326.457 413.122 322.696 419.189 321.24L437.389 317.964V203.304L419.189 200.028C413.122 198.572 410.089 194.811 410.089 188.744V167.268H463.961C468.571 167.268 471.726 168.117 473.425 169.816C475.123 171.515 476.337 174.427 477.065 178.552L479.977 201.12C486.529 189.229 494.294 180.129 503.273 173.82C512.494 167.268 522.565 163.992 533.485 163.992ZM644.34 356.912C628.081 356.912 615.584 352.301 606.848 343.08C598.112 333.859 593.744 321.24 593.744 305.224V201.12H574.816C572.874 201.12 570.812 200.271 568.628 198.572C566.686 197.116 565.716 194.811 565.716 191.656V173.456L595.928 168.724L605.392 117.764C605.634 115.58 606.726 113.76 608.668 112.304C610.609 110.848 612.914 110.12 615.584 110.12H638.88V169.088H688.02V201.12H638.88V302.312C638.88 307.893 640.336 312.383 643.248 315.78C646.16 318.935 650.042 320.512 654.896 320.512C658.293 320.512 660.598 320.269 661.812 319.784L666.544 317.6L670.548 315.416C671.276 314.931 672.246 314.688 673.46 314.688C675.401 314.688 676.614 314.931 677.1 315.416L679.648 318.328L693.116 340.168C686.806 345.264 679.284 349.389 670.548 352.544C662.297 355.456 653.561 356.912 644.34 356.912ZM777.572 139.24C775.874 144.821 775.024 150.524 775.024 156.348V168.724H823.8V200.756H776.844V317.964L787.764 319.784C788.978 320.027 790.07 320.269 791.04 320.512C792.254 320.755 793.346 320.876 794.316 320.876L797.228 321.24C803.295 322.696 806.328 326.457 806.328 332.524V354H704.044V332.524C704.044 326.457 707.078 322.696 713.144 321.24C714.115 321.24 714.964 321.119 715.692 320.876L721.152 319.784L731.708 317.964V201.12L715.692 198.572C711.81 197.844 708.898 196.631 706.956 194.932C705.015 193.233 704.044 190.685 704.044 187.288V169.088H731.708V155.256C731.708 144.093 733.286 134.508 736.44 126.5C740.08 117.279 744.691 109.999 750.272 104.66C756.582 98.836 763.862 94.3466 772.112 91.192C780.606 88.0373 790.312 86.46 801.232 86.46C809.968 86.46 817.976 87.552 825.256 89.736L824.528 112.304C824.286 115.944 822.587 118.128 819.432 118.856C815.55 119.827 812.031 120.312 808.876 120.312C803.052 120.312 798.32 120.797 794.68 121.768C790.798 122.739 787.279 124.801 784.124 127.956C781.212 130.868 779.028 134.629 777.572 139.24ZM929.784 164.356C943.131 164.356 955.749 166.661 967.64 171.272C979.288 175.883 988.995 182.192 996.76 190.2C1004.53 198.208 1010.59 208.279 1014.96 220.412C1019.33 232.303 1021.51 245.528 1021.51 260.088C1021.51 274.648 1019.33 287.995 1014.96 300.128C1010.35 312.504 1004.28 322.696 996.76 330.704C988.752 339.197 979.045 345.628 967.64 349.996C956.477 354.364 943.859 356.548 929.784 356.548C915.709 356.548 902.969 354.364 891.564 349.996C880.159 345.628 870.452 339.197 862.444 330.704C853.951 321.968 847.641 311.776 843.516 300.128C839.148 287.995 836.964 274.648 836.964 260.088C836.964 245.528 839.148 232.303 843.516 220.412C847.641 209.249 853.951 199.179 862.444 190.2C870.209 182.192 879.916 175.883 891.564 171.272C903.455 166.661 916.195 164.356 929.784 164.356ZM929.784 321.968C945.315 321.968 956.72 316.751 964 306.316C971.523 295.396 975.284 280.108 975.284 260.452C975.284 240.796 971.523 225.508 964 214.588C956.72 203.911 945.315 198.572 929.784 198.572C914.253 198.572 902.605 203.911 894.84 214.588C887.075 225.265 883.192 240.675 883.192 260.816C883.192 280.472 887.075 295.639 894.84 306.316C902.363 316.751 914.011 321.968 929.784 321.968ZM1125.28 321.24C1131.35 322.696 1134.38 326.457 1134.38 332.524V354H1034.28V332.524C1034.28 326.457 1037.32 322.696 1043.38 321.24L1045.57 320.876L1051.03 319.784L1061.95 317.964V119.584L1051.03 117.764C1049.81 117.521 1048.72 117.279 1047.75 117.036C1047.02 116.793 1046.3 116.672 1045.57 116.672L1043.38 116.308C1037.32 114.852 1034.28 111.091 1034.28 105.024V83.548H1106.72V317.964L1117.64 319.784L1123.1 320.876L1125.28 321.24ZM1226.31 112.668C1226.31 116.065 1225.46 119.705 1223.76 123.588C1222.31 126.985 1220.24 130.019 1217.57 132.688C1214.66 135.6 1211.63 137.663 1208.47 138.876C1204.83 140.332 1201.07 141.06 1197.19 141.06C1193.31 141.06 1189.55 140.332 1185.91 138.876C1182.99 137.663 1180.08 135.6 1177.17 132.688C1174.5 130.019 1172.44 126.985 1170.98 123.588C1169.53 120.191 1168.8 116.551 1168.8 112.668C1168.8 108.785 1169.53 105.024 1170.98 101.384C1172.2 98.2293 1174.26 95.196 1177.17 92.284C1179.84 89.6147 1182.75 87.6733 1185.91 86.46C1190.27 84.7613 1194.04 83.912 1197.19 83.912C1200.34 83.912 1204.11 84.7613 1208.47 86.46C1212.11 87.916 1215.15 89.8573 1217.57 92.284C1220.49 95.196 1222.55 98.2293 1223.76 101.384C1225.46 105.509 1226.31 109.271 1226.31 112.668ZM1237.96 321.24C1244.02 322.696 1247.06 326.457 1247.06 332.524V354H1146.96V332.524C1146.96 326.457 1149.99 322.696 1156.06 321.24L1158.24 320.876L1163.7 319.784L1174.62 317.964V203.304L1163.7 201.484C1162.49 201.241 1161.4 200.999 1160.43 200.756C1159.7 200.513 1158.97 200.392 1158.24 200.392L1156.06 200.028C1149.99 198.572 1146.96 194.811 1146.96 188.744V167.268H1219.39V317.964L1230.31 319.784C1231.53 320.027 1232.5 320.269 1233.23 320.512C1234.2 320.755 1235.05 320.876 1235.77 320.876L1237.96 321.24ZM1351.37 164.356C1364.72 164.356 1377.34 166.661 1389.23 171.272C1400.87 175.883 1410.58 182.192 1418.35 190.2C1426.11 198.208 1432.18 208.279 1436.55 220.412C1440.91 232.303 1443.1 245.528 1443.1 260.088C1443.1 274.648 1440.91 287.995 1436.55 300.128C1431.94 312.504 1425.87 322.696 1418.35 330.704C1410.34 339.197 1400.63 345.628 1389.23 349.996C1378.06 354.364 1365.44 356.548 1351.37 356.548C1337.3 356.548 1324.56 354.364 1313.15 349.996C1301.74 345.628 1292.04 339.197 1284.03 330.704C1275.54 321.968 1269.23 311.776 1265.1 300.128C1260.73 287.995 1258.55 274.648 1258.55 260.088C1258.55 245.528 1260.73 232.303 1265.1 220.412C1269.23 209.249 1275.54 199.179 1284.03 190.2C1291.8 182.192 1301.5 175.883 1313.15 171.272C1325.04 166.661 1337.78 164.356 1351.37 164.356ZM1351.37 321.968C1366.9 321.968 1378.31 316.751 1385.59 306.316C1393.11 295.396 1396.87 280.108 1396.87 260.452C1396.87 240.796 1393.11 225.508 1385.59 214.588C1378.31 203.911 1366.9 198.572 1351.37 198.572C1335.84 198.572 1324.19 203.911 1316.43 214.588C1308.66 225.265 1304.78 240.675 1304.78 260.816C1304.78 280.472 1308.66 295.639 1316.43 306.316C1323.95 316.751 1335.6 321.968 1351.37 321.968Z" fill="black"/>
</g>
<defs>
<clipPath id="clip0_240_268">
<rect width="1440" height="289" fill="white"/>
</clipPath>
</defs>
</svg>
