<svg width="131" height="154" viewBox="0 0 131 154" fill="none" xmlns="http://www.w3.org/2000/svg">
<path d="M0.699219 153.906L18.5703 76.2695C22.9323 57.3242 29.5729 42.1224 38.4922 30.6641C54.1172 10.612 71.5977 0.585938 90.9336 0.585938C107.21 0.585938 118.635 6.57552 125.211 18.5547C128.792 25.0651 130.582 32.0638 130.582 39.5508C130.582 43.5221 130.094 47.6237 129.117 51.8555C126.513 63.0534 120.165 73.5026 110.074 83.2031C103.564 89.4531 96.1745 94.0755 87.9062 97.0703L110.758 145.801L91.7148 153.906H90.7383L66.0312 101.172H43.9609L44.2539 100.195L55.1914 84.5703H66.7148C78.9544 84.5703 88.3945 81.5755 95.0352 75.5859C102.652 68.6849 107.503 60.7747 109.586 51.8555C110.432 48.2096 110.855 44.8242 110.855 41.6992C110.855 35.6445 109.293 30.5013 106.168 26.2695C101.676 20.2148 95.3281 17.1875 87.125 17.1875C75.1458 17.1875 63.9479 24.2188 53.5312 38.2812C47.0859 47.0052 41.9427 59.668 38.1016 76.2695L22.2812 145.117L1.67578 153.906H0.699219Z" fill="white"/>
</svg>
