<svg width="533" height="342" viewBox="0 0 533 342" fill="none" xmlns="http://www.w3.org/2000/svg">
<path d="M79.0227 132.182H93.6136V180.864C93.6136 185.364 92.6023 189.273 90.5795 192.591C88.5795 195.909 85.7955 198.466 82.2273 200.261C78.6591 202.057 74.5114 202.955 69.7841 202.955C65.5795 202.955 61.7614 202.216 58.3295 200.739C54.9205 199.239 52.2159 196.966 50.2159 193.92C48.2159 190.852 47.2273 187 47.25 182.364H61.9432C61.9886 184.205 62.3636 185.784 63.0682 187.102C63.7955 188.398 64.7841 189.398 66.0341 190.102C67.3068 190.784 68.8068 191.125 70.5341 191.125C72.3523 191.125 73.8864 190.739 75.1364 189.966C76.4091 189.17 77.375 188.011 78.0341 186.489C78.6932 184.966 79.0227 183.091 79.0227 180.864V132.182ZM117.852 202H102.034L126.136 132.182H145.159L169.227 202H153.409L135.92 148.136H135.375L117.852 202ZM116.864 174.557H154.227V186.08H116.864V174.557ZM181.526 132.182L198.401 185.227H199.048L215.957 132.182H232.321L208.253 202H189.23L165.128 132.182H181.526ZM243.477 202H227.659L251.761 132.182H270.784L294.852 202H279.034L261.545 148.136H261L243.477 202ZM242.489 174.557H279.852V186.08H242.489V174.557Z" fill="#FBBC04"/>
<path d="M138.075 82.9091H145.826V108.771C145.826 111.162 145.289 113.239 144.214 115.001C143.152 116.764 141.673 118.123 139.777 119.076C137.881 120.03 135.678 120.507 133.167 120.507C130.933 120.507 128.904 120.115 127.081 119.33C125.27 118.533 123.833 117.326 122.771 115.708C121.708 114.078 121.183 112.031 121.195 109.568H129.001C129.025 110.546 129.224 111.385 129.599 112.086C129.985 112.774 130.51 113.305 131.174 113.679C131.85 114.042 132.647 114.223 133.565 114.223C134.531 114.223 135.346 114.017 136.01 113.607C136.686 113.184 137.199 112.569 137.549 111.76C137.9 110.951 138.075 109.955 138.075 108.771V82.9091ZM160.097 120.525C158.322 120.525 156.741 120.217 155.352 119.602C153.964 118.974 152.865 118.05 152.056 116.831C151.259 115.599 150.861 114.066 150.861 112.23C150.861 110.685 151.145 109.387 151.712 108.337C152.279 107.286 153.052 106.441 154.03 105.801C155.008 105.161 156.119 104.678 157.363 104.352C158.618 104.026 159.934 103.797 161.311 103.664C162.929 103.495 164.233 103.338 165.223 103.193C166.213 103.036 166.931 102.807 167.378 102.505C167.825 102.203 168.048 101.756 168.048 101.165V101.056C168.048 99.9091 167.686 99.0217 166.961 98.3938C166.249 97.766 165.235 97.4521 163.919 97.4521C162.53 97.4521 161.425 97.7599 160.604 98.3757C159.783 98.9794 159.24 99.7401 158.974 100.658L151.839 100.078C152.201 98.3878 152.913 96.9268 153.976 95.6953C155.038 94.4517 156.409 93.4979 158.087 92.8338C159.777 92.1577 161.733 91.8196 163.955 91.8196C165.5 91.8196 166.979 92.0007 168.392 92.3629C169.817 92.7251 171.078 93.2866 172.177 94.0472C173.288 94.8079 174.163 95.7859 174.803 96.9812C175.443 98.1644 175.763 99.5831 175.763 101.237V120H168.446V116.142H168.229C167.782 117.012 167.185 117.778 166.436 118.442C165.688 119.094 164.788 119.608 163.738 119.982C162.687 120.344 161.474 120.525 160.097 120.525ZM162.307 115.201C163.442 115.201 164.444 114.977 165.313 114.531C166.183 114.072 166.865 113.456 167.36 112.683C167.855 111.911 168.102 111.035 168.102 110.057V107.105C167.861 107.262 167.529 107.407 167.106 107.54C166.696 107.661 166.231 107.775 165.712 107.884C165.192 107.98 164.673 108.071 164.154 108.156C163.635 108.228 163.164 108.294 162.741 108.355C161.836 108.488 161.045 108.699 160.369 108.989C159.693 109.278 159.168 109.671 158.793 110.166C158.419 110.649 158.232 111.252 158.232 111.977C158.232 113.027 158.612 113.83 159.373 114.386C160.146 114.929 161.124 115.201 162.307 115.201ZM206.687 92.1818L196.962 120H188.269L178.543 92.1818H186.693L192.47 112.086H192.76L198.519 92.1818H206.687ZM217.821 120.525C216.046 120.525 214.464 120.217 213.076 119.602C211.687 118.974 210.589 118.05 209.78 116.831C208.983 115.599 208.584 114.066 208.584 112.23C208.584 110.685 208.868 109.387 209.436 108.337C210.003 107.286 210.776 106.441 211.754 105.801C212.732 105.161 213.843 104.678 215.086 104.352C216.342 104.026 217.658 103.797 219.034 103.664C220.652 103.495 221.956 103.338 222.946 103.193C223.936 103.036 224.655 102.807 225.101 102.505C225.548 102.203 225.772 101.756 225.772 101.165V101.056C225.772 99.9091 225.409 99.0217 224.685 98.3938C223.973 97.766 222.958 97.4521 221.642 97.4521C220.254 97.4521 219.149 97.7599 218.328 98.3757C217.507 98.9794 216.964 99.7401 216.698 100.658L209.562 100.078C209.925 98.3878 210.637 96.9268 211.699 95.6953C212.762 94.4517 214.132 93.4979 215.811 92.8338C217.501 92.1577 219.457 91.8196 221.679 91.8196C223.224 91.8196 224.703 92.0007 226.116 92.3629C227.54 92.7251 228.802 93.2866 229.901 94.0472C231.012 94.8079 231.887 95.7859 232.527 96.9812C233.167 98.1644 233.487 99.5831 233.487 101.237V120H226.17V116.142H225.953C225.506 117.012 224.908 117.778 224.16 118.442C223.411 119.094 222.512 119.608 221.461 119.982C220.411 120.344 219.197 120.525 217.821 120.525ZM220.03 115.201C221.165 115.201 222.168 114.977 223.037 114.531C223.906 114.072 224.588 113.456 225.083 112.683C225.578 111.911 225.826 111.035 225.826 110.057V107.105C225.584 107.262 225.252 107.407 224.83 107.54C224.419 107.661 223.954 107.775 223.435 107.884C222.916 107.98 222.397 108.071 221.878 108.156C221.359 108.228 220.888 108.294 220.465 108.355C219.56 108.488 218.769 108.699 218.093 108.989C217.416 109.278 216.891 109.671 216.517 110.166C216.143 110.649 215.956 111.252 215.956 111.977C215.956 113.027 216.336 113.83 217.097 114.386C217.869 114.929 218.847 115.201 220.03 115.201ZM259.738 93.5763C259.593 92.1154 258.972 90.9805 257.873 90.1715C256.774 89.3626 255.283 88.9581 253.4 88.9581C252.12 88.9581 251.039 89.1392 250.158 89.5014C249.276 89.8516 248.6 90.3406 248.129 90.9684C247.671 91.5962 247.441 92.3086 247.441 93.1055C247.417 93.7695 247.556 94.3491 247.858 94.8441C248.172 95.3391 248.6 95.7678 249.144 96.13C249.687 96.4801 250.315 96.788 251.027 97.0536C251.739 97.3072 252.5 97.5245 253.309 97.7056L256.641 98.5025C258.259 98.8647 259.744 99.3477 261.097 99.9513C262.449 100.555 263.62 101.298 264.61 102.179C265.6 103.06 266.367 104.099 266.91 105.294C267.466 106.489 267.749 107.86 267.761 109.405C267.749 111.675 267.17 113.643 266.023 115.309C264.888 116.963 263.246 118.249 261.097 119.167C258.96 120.072 256.382 120.525 253.363 120.525C250.369 120.525 247.761 120.066 245.54 119.149C243.33 118.231 241.603 116.873 240.36 115.074C239.128 113.263 238.482 111.023 238.422 108.355H246.01C246.095 109.598 246.451 110.637 247.079 111.47C247.719 112.291 248.57 112.913 249.633 113.335C250.707 113.746 251.921 113.951 253.273 113.951C254.601 113.951 255.754 113.758 256.732 113.371C257.722 112.985 258.489 112.448 259.032 111.76C259.575 111.071 259.847 110.281 259.847 109.387C259.847 108.554 259.6 107.854 259.104 107.286C258.622 106.719 257.909 106.236 256.967 105.837C256.038 105.439 254.897 105.077 253.544 104.751L249.506 103.737C246.379 102.976 243.91 101.787 242.098 100.169C240.287 98.5508 239.388 96.3714 239.4 93.6307C239.388 91.3849 239.986 89.4229 241.193 87.7447C242.412 86.0664 244.085 84.7564 246.21 83.8146C248.335 82.8729 250.749 82.402 253.454 82.402C256.207 82.402 258.609 82.8729 260.662 83.8146C262.727 84.7564 264.332 86.0664 265.479 87.7447C266.627 89.4229 267.218 91.3668 267.254 93.5763H259.738ZM285.46 120.543C282.611 120.543 280.16 119.94 278.107 118.732C276.067 117.513 274.497 115.822 273.398 113.661C272.312 111.5 271.768 109.013 271.768 106.2C271.768 103.35 272.318 100.851 273.417 98.7017C274.527 96.5405 276.103 94.8562 278.143 93.6488C280.184 92.4293 282.611 91.8196 285.424 91.8196C287.851 91.8196 289.976 92.2603 291.799 93.1417C293.622 94.0231 295.065 95.2607 296.127 96.8544C297.19 98.4482 297.776 100.32 297.884 102.469H290.604C290.398 101.08 289.855 99.9634 288.974 99.1183C288.104 98.261 286.963 97.8324 285.551 97.8324C284.355 97.8324 283.311 98.1584 282.418 98.8104C281.536 99.4503 280.848 100.386 280.353 101.618C279.858 102.849 279.61 104.34 279.61 106.091C279.61 107.866 279.852 109.375 280.335 110.619C280.83 111.862 281.524 112.81 282.418 113.462C283.311 114.114 284.355 114.44 285.551 114.44C286.432 114.44 287.223 114.259 287.923 113.897C288.636 113.534 289.221 113.009 289.68 112.321C290.151 111.621 290.459 110.782 290.604 109.804H297.884C297.763 111.929 297.184 113.8 296.146 115.418C295.119 117.024 293.701 118.279 291.89 119.185C290.078 120.091 287.935 120.543 285.46 120.543ZM302.824 120V92.1818H310.304V97.0355H310.593C311.101 95.3089 311.952 94.005 313.147 93.1236C314.342 92.2301 315.719 91.7834 317.276 91.7834C317.663 91.7834 318.079 91.8075 318.526 91.8558C318.973 91.9041 319.365 91.9705 319.703 92.055V98.9009C319.341 98.7923 318.84 98.6957 318.2 98.6111C317.56 98.5266 316.975 98.4844 316.443 98.4844C315.308 98.4844 314.294 98.7319 313.401 99.2269C312.519 99.7099 311.819 100.386 311.3 101.255C310.793 102.125 310.539 103.127 310.539 104.262V120H302.824ZM323.692 120V92.1818H331.407V120H323.692ZM327.568 88.5959C326.421 88.5959 325.437 88.2156 324.616 87.4549C323.807 86.6822 323.402 85.7585 323.402 84.6839C323.402 83.6214 323.807 82.7099 324.616 81.9492C325.437 81.1765 326.421 80.7901 327.568 80.7901C328.715 80.7901 329.693 81.1765 330.502 81.9492C331.323 82.7099 331.733 83.6214 331.733 84.6839C331.733 85.7585 331.323 86.6822 330.502 87.4549C329.693 88.2156 328.715 88.5959 327.568 88.5959ZM337.588 130.432V92.1818H345.194V96.8544H345.538C345.876 96.1058 346.365 95.3452 347.005 94.5724C347.657 93.7876 348.502 93.1357 349.541 92.6165C350.591 92.0852 351.895 91.8196 353.453 91.8196C355.481 91.8196 357.353 92.3509 359.067 93.4134C360.782 94.4638 362.152 96.0515 363.178 98.1765C364.204 100.289 364.718 102.94 364.718 106.127C364.718 109.23 364.217 111.85 363.214 113.987C362.224 116.112 360.872 117.724 359.158 118.823C357.455 119.909 355.547 120.453 353.435 120.453C351.937 120.453 350.664 120.205 349.613 119.71C348.575 119.215 347.724 118.593 347.06 117.845C346.396 117.084 345.888 116.317 345.538 115.545H345.303V130.432H337.588ZM345.14 106.091C345.14 107.745 345.369 109.188 345.828 110.419C346.287 111.651 346.951 112.611 347.82 113.299C348.69 113.975 349.746 114.313 350.99 114.313C352.245 114.313 353.308 113.969 354.177 113.281C355.046 112.581 355.704 111.615 356.151 110.383C356.61 109.14 356.839 107.709 356.839 106.091C356.839 104.485 356.616 103.072 356.169 101.853C355.723 100.634 355.065 99.6797 354.195 98.9915C353.326 98.3033 352.257 97.9592 350.99 97.9592C349.734 97.9592 348.671 98.2912 347.802 98.9553C346.945 99.6193 346.287 100.561 345.828 101.781C345.369 103 345.14 104.437 345.14 106.091ZM384.658 92.1818V97.9773H367.905V92.1818H384.658ZM371.708 85.517H379.424V111.452C379.424 112.164 379.532 112.719 379.75 113.118C379.967 113.504 380.269 113.776 380.655 113.933C381.054 114.09 381.512 114.168 382.032 114.168C382.394 114.168 382.756 114.138 383.118 114.078C383.48 114.005 383.758 113.951 383.951 113.915L385.165 119.656C384.778 119.777 384.235 119.915 383.535 120.072C382.834 120.241 381.983 120.344 380.981 120.38C379.122 120.453 377.492 120.205 376.091 119.638C374.703 119.07 373.622 118.189 372.849 116.994C372.077 115.798 371.696 114.289 371.708 112.466V85.517Z" fill="#0084FF"/>
<path d="M348.417 257.014L348.58 206.832L368.378 206.897C372.184 206.909 375.425 207.647 378.099 209.109C380.773 210.555 382.809 212.563 384.205 215.132C385.618 217.685 386.319 220.628 386.308 223.96C386.297 227.292 385.569 230.23 384.123 232.774C382.677 235.318 380.588 237.296 377.856 238.708C375.139 240.12 371.854 240.82 367.999 240.808L355.38 240.767L355.407 232.264L366.311 232.3C368.353 232.306 370.037 231.96 371.362 231.262C372.704 230.548 373.703 229.563 374.361 228.307C375.035 227.035 375.375 225.574 375.38 223.925C375.385 222.258 375.055 220.803 374.389 219.56C373.74 218.3 372.747 217.325 371.41 216.634C370.072 215.927 368.375 215.571 366.316 215.564L359.162 215.541L359.027 257.048L348.417 257.014ZM393.092 257.159L393.255 206.978L403.864 207.012L403.797 227.717L425.335 227.787L425.402 207.082L435.988 207.117L435.824 257.298L425.239 257.264L425.307 236.534L403.769 236.464L403.701 257.194L393.092 257.159ZM444.572 257.327L444.735 207.145L464.533 207.209C468.339 207.222 471.579 207.959 474.254 209.422C476.928 210.868 478.963 212.876 480.36 215.445C481.773 217.998 482.474 220.94 482.463 224.273C482.452 227.605 481.724 230.543 480.278 233.087C478.832 235.63 476.743 237.608 474.01 239.021C471.294 240.433 468.008 241.133 464.153 241.12L451.534 241.079L451.562 232.577L462.466 232.612C464.508 232.619 466.191 232.273 467.517 231.575C468.859 230.861 469.858 229.876 470.516 228.62C471.19 227.348 471.529 225.887 471.535 224.237C471.54 222.571 471.21 221.116 470.544 219.873C469.895 218.613 468.902 217.637 467.564 216.947C466.227 216.24 464.529 215.883 462.471 215.877L455.316 215.854L455.181 257.361L444.572 257.327Z" fill="#FF5474"/>
<path d="M4.47585 47.2727L8.51882 59.9815H8.67401L12.7251 47.2727H16.6456L10.8793 64H6.32173L0.54723 47.2727H4.47585ZM18.5936 64V51.4545H22.073V64H18.5936ZM20.3414 49.8374C19.8242 49.8374 19.3804 49.6658 19.0101 49.3228C18.6453 48.9743 18.4629 48.5578 18.4629 48.0732C18.4629 47.594 18.6453 47.1829 19.0101 46.8398C19.3804 46.4914 19.8242 46.3171 20.3414 46.3171C20.8587 46.3171 21.2998 46.4914 21.6646 46.8398C22.0349 47.1829 22.22 47.594 22.22 48.0732C22.22 48.5578 22.0349 48.9743 21.6646 49.3228C21.2998 49.6658 20.8587 49.8374 20.3414 49.8374ZM35.2984 55.032L32.113 55.228C32.0586 54.9557 31.9415 54.7107 31.7618 54.4929C31.5821 54.2696 31.3453 54.0927 31.0512 53.962C30.7626 53.8259 30.4169 53.7578 30.0139 53.7578C29.4749 53.7578 29.0202 53.8722 28.6499 54.1009C28.2797 54.3241 28.0945 54.6236 28.0945 54.9993C28.0945 55.2988 28.2143 55.552 28.4539 55.7589C28.6935 55.9658 29.1046 56.1319 29.6872 56.2571L31.9578 56.7145C33.1775 56.965 34.0869 57.3679 34.6858 57.9233C35.2848 58.4787 35.5843 59.2083 35.5843 60.1122C35.5843 60.9344 35.3419 61.6559 34.8573 62.2766C34.3782 62.8974 33.7193 63.382 32.8808 63.7305C32.0477 64.0735 31.0866 64.245 29.9976 64.245C28.3369 64.245 27.0137 63.8993 26.0281 63.2077C25.048 62.5108 24.4736 61.5633 24.3048 60.3654L27.727 60.1857C27.8305 60.6921 28.0809 61.0787 28.4784 61.3455C28.8759 61.6069 29.385 61.7376 30.0058 61.7376C30.6156 61.7376 31.1057 61.6205 31.4759 61.3864C31.8517 61.1468 32.0422 60.8391 32.0477 60.4634C32.0422 60.1476 31.9088 59.889 31.6475 59.6875C31.3861 59.4806 30.9832 59.3227 30.4387 59.2138L28.2661 58.7809C27.0409 58.5359 26.1289 58.1112 25.5299 57.5067C24.9364 56.9023 24.6396 56.1319 24.6396 55.1953C24.6396 54.3894 24.8575 53.6952 25.2931 53.1126C25.7341 52.5299 26.3521 52.0807 27.1471 51.7649C27.9475 51.4491 28.8841 51.2912 29.9568 51.2912C31.5413 51.2912 32.7882 51.6261 33.6975 52.2958C34.6123 52.9656 35.1459 53.8776 35.2984 55.032ZM45.8203 58.6584V51.4545H49.2997V64H45.9592V61.7212H45.8285C45.5453 62.4563 45.0743 63.0471 44.4155 63.4936C43.7621 63.9401 42.9644 64.1634 42.0224 64.1634C41.1838 64.1634 40.446 63.9728 39.8089 63.5916C39.1719 63.2105 38.6737 62.6687 38.3143 61.9663C37.9603 61.2638 37.7807 60.4226 37.7752 59.4425V51.4545H41.2546V58.8217C41.2601 59.5623 41.4588 60.1476 41.8509 60.5778C42.2429 61.0079 42.7683 61.223 43.4272 61.223C43.8465 61.223 44.2385 61.1277 44.6033 60.9371C44.9682 60.7411 45.2622 60.4525 45.4854 60.0714C45.7141 59.6902 45.8258 59.2192 45.8203 58.6584ZM55.6602 64.2369C54.8598 64.2369 54.1465 64.098 53.5203 63.8203C52.8941 63.5372 52.3986 63.1206 52.0338 62.5707C51.6744 62.0153 51.4948 61.3237 51.4948 60.4961C51.4948 59.7991 51.6227 59.2138 51.8786 58.7401C52.1346 58.2663 52.483 57.8852 52.9241 57.5966C53.3651 57.308 53.8661 57.0902 54.4269 56.9432C54.9932 56.7962 55.5867 56.6927 56.2075 56.6328C56.9371 56.5566 57.5252 56.4858 57.9717 56.4205C58.4182 56.3497 58.7422 56.2462 58.9436 56.1101C59.1451 55.974 59.2458 55.7725 59.2458 55.5057V55.4567C59.2458 54.9394 59.0825 54.5392 58.7558 54.256C58.4345 53.9729 57.9771 53.8313 57.3836 53.8313C56.7574 53.8313 56.2592 53.9702 55.8889 54.2479C55.5187 54.5201 55.2736 54.8632 55.1539 55.277L51.9358 55.0156C52.0992 54.2533 52.4204 53.5945 52.8996 53.0391C53.3788 52.4782 53.9968 52.0481 54.7536 51.7486C55.516 51.4437 56.3981 51.2912 57.3999 51.2912C58.0969 51.2912 58.7639 51.3729 59.401 51.5362C60.0435 51.6996 60.6125 51.9528 61.108 52.2958C61.609 52.6388 62.0038 53.0799 62.2923 53.619C62.5809 54.1526 62.7252 54.7924 62.7252 55.5384V64H59.4255V62.2603H59.3275C59.126 62.6523 58.8565 62.9981 58.5189 63.2976C58.1813 63.5916 57.7757 63.823 57.3019 63.9918C56.8282 64.1552 56.281 64.2369 55.6602 64.2369ZM56.6567 61.8356C57.1685 61.8356 57.6205 61.7348 58.0125 61.5334C58.4046 61.3265 58.7122 61.0488 58.9355 60.7003C59.1587 60.3518 59.2703 59.957 59.2703 59.516V58.1847C59.1614 58.2554 59.0117 58.3208 58.8211 58.3807C58.636 58.4351 58.4263 58.4869 58.1922 58.5359C57.9581 58.5794 57.7239 58.6203 57.4898 58.6584C57.2557 58.6911 57.0433 58.721 56.8527 58.7482C56.4443 58.8081 56.0877 58.9034 55.7828 59.0341C55.4778 59.1648 55.241 59.3417 55.0722 59.565C54.9034 59.7828 54.819 60.055 54.819 60.3817C54.819 60.8555 54.9905 61.2176 55.3335 61.468C55.682 61.7131 56.1231 61.8356 56.6567 61.8356ZM68.904 47.2727V64H65.4246V47.2727H68.904ZM86.154 52.0835C86.0887 51.4246 85.8083 50.9128 85.3128 50.5479C84.8173 50.1831 84.1448 50.0007 83.2954 50.0007C82.7182 50.0007 82.2309 50.0824 81.8334 50.2457C81.4359 50.4036 81.1309 50.6242 80.9186 50.9073C80.7117 51.1905 80.6082 51.5117 80.6082 51.8711C80.5973 52.1706 80.6599 52.4319 80.7961 52.6552C80.9376 52.8784 81.1309 53.0717 81.376 53.2351C81.621 53.393 81.9041 53.5318 82.2254 53.6516C82.5467 53.766 82.8897 53.864 83.2545 53.9457L84.7574 54.305C85.487 54.4684 86.1568 54.6862 86.7666 54.9585C87.3765 55.2307 87.9046 55.5656 88.3511 55.9631C88.7976 56.3606 89.1434 56.8288 89.3884 57.3679C89.6389 57.907 89.7668 58.525 89.7723 59.2219C89.7668 60.2456 89.5055 61.1332 88.9882 61.8846C88.4764 62.6306 87.7358 63.2105 86.7666 63.6243C85.8028 64.0327 84.6403 64.2369 83.279 64.2369C81.9287 64.2369 80.7525 64.0299 79.7506 63.6161C78.7542 63.2023 77.9755 62.5897 77.4147 61.7784C76.8593 60.9616 76.568 59.9516 76.5407 58.7482H79.963C80.0011 59.3091 80.1617 59.7773 80.4449 60.1531C80.7335 60.5233 81.1173 60.8037 81.5965 60.9943C82.0811 61.1795 82.6283 61.272 83.2382 61.272C83.8372 61.272 84.3572 61.1849 84.7982 61.0107C85.2447 60.8364 85.5905 60.5941 85.8355 60.2837C86.0805 59.9734 86.203 59.6167 86.203 59.2138C86.203 58.8381 86.0914 58.5223 85.8682 58.2663C85.6504 58.0104 85.3291 57.7926 84.9044 57.6129C84.4851 57.4332 83.9706 57.2699 83.3607 57.1229L81.5393 56.6655C80.1291 56.3224 79.0155 55.7861 78.1988 55.0565C77.382 54.3268 76.9764 53.344 76.9818 52.108C76.9764 51.0952 77.2459 50.2103 77.7904 49.4535C78.3403 48.6966 79.0945 48.1058 80.0528 47.6811C81.0112 47.2564 82.1002 47.044 83.3199 47.044C84.5613 47.044 85.6449 47.2564 86.5706 47.6811C87.5017 48.1058 88.2259 48.6966 88.7432 49.4535C89.2604 50.2103 89.5273 51.087 89.5436 52.0835H86.154ZM98.7587 51.4545V54.0682H91.2037V51.4545H98.7587ZM92.9189 48.4489H96.3983V60.1449C96.3983 60.4661 96.4473 60.7166 96.5453 60.8963C96.6433 61.0705 96.7794 61.1931 96.9537 61.2638C97.1333 61.3346 97.3403 61.37 97.5744 61.37C97.7377 61.37 97.9011 61.3564 98.0645 61.3292C98.2278 61.2965 98.353 61.272 98.4402 61.2557L98.9874 63.8448C98.8132 63.8993 98.5681 63.9619 98.2523 64.0327C97.9365 64.1089 97.5526 64.1552 97.1007 64.1715C96.2621 64.2042 95.527 64.0926 94.8954 63.8366C94.2692 63.5807 93.7819 63.1832 93.4334 62.6442C93.0849 62.1051 92.9134 61.4245 92.9189 60.6023V48.4489ZM109.07 58.6584V51.4545H112.55V64H109.209V61.7212H109.078C108.795 62.4563 108.324 63.0471 107.665 63.4936C107.012 63.9401 106.214 64.1634 105.272 64.1634C104.434 64.1634 103.696 63.9728 103.059 63.5916C102.422 63.2105 101.924 62.6687 101.564 61.9663C101.21 61.2638 101.031 60.4226 101.025 59.4425V51.4545H104.505V58.8217C104.51 59.5623 104.709 60.1476 105.101 60.5778C105.493 61.0079 106.018 61.223 106.677 61.223C107.096 61.223 107.489 61.1277 107.853 60.9371C108.218 60.7411 108.512 60.4525 108.735 60.0714C108.964 59.6902 109.076 59.2192 109.07 58.6584ZM119.956 64.2042C119.003 64.2042 118.14 63.9592 117.367 63.4691C116.599 62.9736 115.989 62.2467 115.537 61.2884C115.091 60.3246 114.867 59.143 114.867 57.7436C114.867 56.3061 115.099 55.1109 115.562 54.158C116.024 53.1997 116.64 52.4837 117.407 52.0099C118.181 51.5308 119.027 51.2912 119.948 51.2912C120.65 51.2912 121.235 51.411 121.704 51.6506C122.177 51.8847 122.558 52.1787 122.847 52.5327C123.141 52.8812 123.364 53.2242 123.517 53.5618H123.623V47.2727H127.094V64H123.664V61.9908H123.517C123.353 62.3393 123.122 62.685 122.823 63.0281C122.528 63.3656 122.145 63.6461 121.671 63.8693C121.203 64.0926 120.631 64.2042 119.956 64.2042ZM121.058 61.4354C121.619 61.4354 122.093 61.2829 122.479 60.978C122.872 60.6676 123.171 60.2347 123.378 59.6793C123.59 59.1239 123.696 58.4732 123.696 57.7273C123.696 56.9813 123.593 56.3333 123.386 55.7834C123.179 55.2334 122.88 54.8087 122.488 54.5092C122.096 54.2098 121.619 54.06 121.058 54.06C120.487 54.06 120.005 54.2152 119.613 54.5256C119.221 54.8359 118.924 55.2661 118.722 55.8161C118.521 56.366 118.42 57.0031 118.42 57.7273C118.42 58.4569 118.521 59.1022 118.722 59.663C118.929 60.2184 119.226 60.654 119.613 60.9698C120.005 61.2802 120.487 61.4354 121.058 61.4354ZM129.955 64V51.4545H133.434V64H129.955ZM131.703 49.8374C131.185 49.8374 130.742 49.6658 130.371 49.3228C130.007 48.9743 129.824 48.5578 129.824 48.0732C129.824 47.594 130.007 47.1829 130.371 46.8398C130.742 46.4914 131.185 46.3171 131.703 46.3171C132.22 46.3171 132.661 46.4914 133.026 46.8398C133.396 47.1829 133.581 47.594 133.581 48.0732C133.581 48.5578 133.396 48.9743 133.026 49.3228C132.661 49.6658 132.22 49.8374 131.703 49.8374ZM141.89 64.245C140.621 64.245 139.524 63.9755 138.598 63.4364C137.678 62.8919 136.967 62.1351 136.467 61.1658C135.966 60.1912 135.715 59.0613 135.715 57.7763C135.715 56.4804 135.966 55.3478 136.467 54.3786C136.967 53.4039 137.678 52.647 138.598 52.108C139.524 51.5634 140.621 51.2912 141.89 51.2912C143.159 51.2912 144.253 51.5634 145.173 52.108C146.099 52.647 146.812 53.4039 147.313 54.3786C147.814 55.3478 148.065 56.4804 148.065 57.7763C148.065 59.0613 147.814 60.1912 147.313 61.1658C146.812 62.1351 146.099 62.8919 145.173 63.4364C144.253 63.9755 143.159 64.245 141.89 64.245ZM141.906 61.5497C142.483 61.5497 142.965 61.3864 143.352 61.0597C143.738 60.7275 144.03 60.2756 144.226 59.7038C144.427 59.1321 144.528 58.4814 144.528 57.7518C144.528 57.0221 144.427 56.3714 144.226 55.7997C144.03 55.228 143.738 54.776 143.352 54.4439C142.965 54.1117 142.483 53.9457 141.906 53.9457C141.324 53.9457 140.833 54.1117 140.436 54.4439C140.044 54.776 139.747 55.228 139.546 55.7997C139.35 56.3714 139.252 57.0221 139.252 57.7518C139.252 58.4814 139.35 59.1321 139.546 59.7038C139.747 60.2756 140.044 60.7275 140.436 61.0597C140.833 61.3864 141.324 61.5497 141.906 61.5497Z" fill="black"/>
<path d="M81.6165 220.273L87.593 239.06H87.8224L93.8111 220.273H99.6065L91.0824 245H84.3452L75.8089 220.273H81.6165ZM115.997 227.384C115.9 226.41 115.486 225.654 114.753 225.114C114.021 224.575 113.027 224.305 111.771 224.305C110.918 224.305 110.197 224.426 109.61 224.668C109.022 224.901 108.571 225.227 108.257 225.646C107.952 226.064 107.799 226.539 107.799 227.07C107.783 227.513 107.875 227.899 108.076 228.229C108.286 228.559 108.571 228.845 108.934 229.087C109.296 229.32 109.714 229.525 110.189 229.702C110.664 229.871 111.171 230.016 111.711 230.137L113.932 230.668C115.011 230.91 116.001 231.232 116.902 231.634C117.804 232.037 118.585 232.532 119.245 233.119C119.905 233.707 120.416 234.399 120.778 235.196C121.148 235.993 121.337 236.906 121.346 237.937C121.337 239.45 120.951 240.762 120.186 241.873C119.43 242.976 118.335 243.833 116.902 244.445C115.478 245.048 113.759 245.35 111.747 245.35C109.751 245.35 108.012 245.044 106.531 244.433C105.058 243.821 103.907 242.915 103.078 241.716C102.257 240.509 101.826 239.015 101.786 237.237H106.845C106.901 238.066 107.139 238.758 107.557 239.313C107.984 239.861 108.551 240.275 109.26 240.557C109.976 240.83 110.785 240.967 111.686 240.967C112.572 240.967 113.341 240.839 113.993 240.581C114.653 240.323 115.164 239.965 115.526 239.506C115.888 239.048 116.069 238.52 116.069 237.925C116.069 237.369 115.904 236.902 115.574 236.524C115.252 236.146 114.777 235.824 114.15 235.558C113.53 235.293 112.769 235.051 111.868 234.834L109.175 234.158C107.09 233.651 105.444 232.858 104.237 231.779C103.029 230.701 102.43 229.248 102.438 227.42C102.43 225.923 102.828 224.615 103.633 223.496C104.446 222.378 105.561 221.504 106.978 220.876C108.394 220.249 110.004 219.935 111.807 219.935C113.642 219.935 115.244 220.249 116.613 220.876C117.989 221.504 119.06 222.378 119.824 223.496C120.589 224.615 120.983 225.911 121.007 227.384H115.997ZM154.549 228.93H149.26C149.164 228.246 148.967 227.638 148.669 227.107C148.371 226.567 147.989 226.108 147.522 225.73C147.055 225.352 146.516 225.062 145.904 224.861C145.3 224.66 144.644 224.559 143.936 224.559C142.656 224.559 141.541 224.877 140.591 225.513C139.641 226.141 138.905 227.058 138.382 228.266C137.859 229.465 137.597 230.922 137.597 232.636C137.597 234.399 137.859 235.88 138.382 237.08C138.913 238.279 139.654 239.184 140.603 239.796C141.553 240.408 142.652 240.714 143.9 240.714C144.6 240.714 145.248 240.621 145.843 240.436C146.447 240.251 146.982 239.981 147.449 239.627C147.916 239.265 148.302 238.826 148.608 238.311C148.922 237.796 149.14 237.208 149.26 236.548L154.549 236.572C154.412 237.707 154.07 238.802 153.522 239.857C152.983 240.903 152.255 241.841 151.337 242.67C150.427 243.491 149.341 244.143 148.077 244.626C146.821 245.101 145.401 245.338 143.815 245.338C141.609 245.338 139.637 244.839 137.899 243.841C136.168 242.843 134.8 241.398 133.794 239.506C132.796 237.615 132.297 235.325 132.297 232.636C132.297 229.94 132.804 227.646 133.818 225.754C134.832 223.863 136.208 222.422 137.947 221.432C139.686 220.434 141.642 219.935 143.815 219.935C145.248 219.935 146.576 220.136 147.799 220.538C149.031 220.941 150.122 221.528 151.071 222.301C152.021 223.066 152.794 224.004 153.39 225.114C153.993 226.225 154.38 227.497 154.549 228.93ZM166.58 245.362C164.705 245.362 163.083 244.964 161.714 244.167C160.354 243.362 159.304 242.243 158.563 240.81C157.823 239.37 157.452 237.699 157.452 235.8C157.452 233.884 157.823 232.21 158.563 230.777C159.304 229.336 160.354 228.217 161.714 227.42C163.083 226.616 164.705 226.213 166.58 226.213C168.456 226.213 170.074 226.616 171.434 227.42C172.802 228.217 173.857 229.336 174.597 230.777C175.338 232.21 175.708 233.884 175.708 235.8C175.708 237.699 175.338 239.37 174.597 240.81C173.857 242.243 172.802 243.362 171.434 244.167C170.074 244.964 168.456 245.362 166.58 245.362ZM166.604 241.378C167.458 241.378 168.17 241.136 168.741 240.653C169.313 240.162 169.744 239.494 170.033 238.649C170.331 237.804 170.48 236.842 170.48 235.763C170.48 234.685 170.331 233.723 170.033 232.878C169.744 232.033 169.313 231.365 168.741 230.874C168.17 230.383 167.458 230.137 166.604 230.137C165.743 230.137 165.019 230.383 164.431 230.874C163.852 231.365 163.413 232.033 163.115 232.878C162.825 233.723 162.68 234.685 162.68 235.763C162.68 236.842 162.825 237.804 163.115 238.649C163.413 239.494 163.852 240.162 164.431 240.653C165.019 241.136 165.743 241.378 166.604 241.378ZM185.886 245.302C184.478 245.302 183.202 244.94 182.059 244.215C180.924 243.483 180.022 242.408 179.354 240.991C178.694 239.567 178.364 237.82 178.364 235.751C178.364 233.626 178.706 231.86 179.391 230.451C180.075 229.034 180.984 227.976 182.119 227.276C183.262 226.567 184.514 226.213 185.874 226.213C186.913 226.213 187.778 226.39 188.47 226.744C189.17 227.09 189.734 227.525 190.161 228.048C190.595 228.563 190.925 229.071 191.151 229.57H191.308V220.273H196.439V245H191.368V242.03H191.151C190.909 242.545 190.567 243.056 190.124 243.563C189.69 244.062 189.122 244.477 188.422 244.807C187.73 245.137 186.884 245.302 185.886 245.302ZM187.516 241.209C188.345 241.209 189.046 240.983 189.617 240.533C190.197 240.074 190.639 239.434 190.945 238.613C191.259 237.792 191.416 236.83 191.416 235.727C191.416 234.625 191.263 233.667 190.957 232.854C190.652 232.041 190.209 231.413 189.629 230.97C189.05 230.527 188.345 230.306 187.516 230.306C186.671 230.306 185.959 230.536 185.379 230.994C184.8 231.453 184.361 232.089 184.063 232.902C183.765 233.715 183.616 234.657 183.616 235.727C183.616 236.806 183.765 237.76 184.063 238.589C184.369 239.41 184.808 240.054 185.379 240.521C185.959 240.979 186.671 241.209 187.516 241.209ZM209.119 245.362C207.212 245.362 205.57 244.976 204.193 244.203C202.825 243.422 201.771 242.32 201.03 240.895C200.289 239.462 199.919 237.768 199.919 235.812C199.919 233.904 200.289 232.23 201.03 230.789C201.771 229.348 202.813 228.225 204.157 227.42C205.509 226.616 207.095 226.213 208.914 226.213C210.138 226.213 211.277 226.41 212.331 226.805C213.394 227.191 214.319 227.775 215.108 228.555C215.905 229.336 216.525 230.318 216.968 231.501C217.41 232.677 217.632 234.053 217.632 235.631V237.043H201.972V233.856H212.79C212.79 233.115 212.629 232.459 212.307 231.888C211.985 231.316 211.538 230.87 210.967 230.548C210.403 230.218 209.747 230.053 208.999 230.053C208.218 230.053 207.526 230.234 206.922 230.596C206.326 230.95 205.86 231.429 205.521 232.033C205.183 232.628 205.01 233.292 205.002 234.025V237.055C205.002 237.973 205.171 238.766 205.509 239.434C205.856 240.102 206.343 240.617 206.97 240.979C207.598 241.342 208.343 241.523 209.204 241.523C209.776 241.523 210.299 241.442 210.774 241.281C211.249 241.12 211.655 240.879 211.993 240.557C212.331 240.235 212.589 239.84 212.766 239.374L217.523 239.688C217.281 240.83 216.786 241.829 216.038 242.682C215.297 243.527 214.339 244.187 213.164 244.662C211.997 245.129 210.649 245.362 209.119 245.362Z" fill="#9B1C1C"/>
<path d="M195 80.5462L178.273 80.5462L178.273 77.0096L185.174 77.0096L185.174 69.8303L178.273 69.8303L178.273 66.3018L195 66.3018L195 69.8303L188.09 69.8303L188.09 77.0096L195 77.0096L195 80.5462ZM181.189 64.0231L178.273 64.0231L178.273 50.2852L181.189 50.2852L181.189 55.4062L195 55.4062L195 58.902L181.189 58.902L181.189 64.0231ZM178.273 48.0227L178.273 43.6612L189.511 39.0547L189.511 38.8587L178.273 34.2521L178.273 29.8906L195 29.8906L195 33.321L184.113 33.321L184.113 33.4599L194.918 37.7887L194.918 40.1246L184.072 44.4535L184.072 44.5923L195 44.5923L195 48.0227L178.273 48.0227ZM195 26.9768L178.273 26.9768L178.273 23.4403L192.084 23.4403L192.084 16.2691L195 16.2691L195 26.9768ZM195.229 7.91566C195.229 9.07002 195.016 10.0991 194.592 11.003C194.167 11.9015 193.582 12.6148 192.836 13.1429C192.09 13.6711 191.235 13.9461 190.271 13.9679L190.271 10.5375C190.919 10.4993 191.444 10.2271 191.847 9.7207C192.25 9.21431 192.452 8.61263 192.452 7.91566C192.452 7.36026 192.329 6.8702 192.084 6.44549C191.834 6.01533 191.488 5.68046 191.047 5.44087C190.6 5.19584 190.089 5.07333 189.511 5.07333C188.923 5.07333 188.406 5.19857 187.96 5.44904C187.513 5.69407 187.165 6.03439 186.914 6.46999C186.664 6.9056 186.536 7.40382 186.53 7.96467C186.53 8.45472 186.631 8.93117 186.832 9.394C187.034 9.85138 187.309 10.208 187.657 10.464L187.094 13.6085L178.273 12.8162L178.273 2.59038L181.164 2.59038L181.164 9.90039L185.354 10.3333L185.354 10.2353C184.94 9.94123 184.597 9.49745 184.325 8.90394C184.053 8.31043 183.917 7.64613 183.917 6.91104C183.917 5.9037 184.153 5.00527 184.627 4.21573C185.101 3.4262 185.752 2.80273 186.579 2.34535C187.401 1.88796 188.349 1.66199 189.422 1.66743C190.549 1.66199 191.551 1.92335 192.427 2.45153C193.298 2.97425 193.984 3.70662 194.485 4.64861C194.981 5.58517 195.229 6.67418 195.229 7.91566Z" fill="#C5221F"/>
<path d="M246.213 57.1289H242.635C242.57 56.6661 242.437 56.255 242.235 55.8956C242.034 55.5308 241.775 55.2204 241.459 54.9645C241.143 54.7086 240.779 54.5125 240.365 54.3764C239.956 54.2403 239.513 54.1722 239.033 54.1722C238.168 54.1722 237.413 54.3873 236.771 54.8175C236.128 55.2422 235.63 55.8629 235.276 56.6797C234.922 57.491 234.745 58.4766 234.745 59.6364C234.745 60.8288 234.922 61.8307 235.276 62.642C235.636 63.4534 236.137 64.0659 236.779 64.4798C237.422 64.8936 238.165 65.1005 239.009 65.1005C239.483 65.1005 239.921 65.0379 240.324 64.9126C240.732 64.7874 241.094 64.605 241.41 64.3654C241.726 64.1204 241.987 63.8236 242.194 63.4751C242.407 63.1267 242.554 62.7292 242.635 62.2827L246.213 62.299C246.12 63.0668 245.889 63.8073 245.518 64.5206C245.154 65.2285 244.661 65.8628 244.04 66.4237C243.425 66.979 242.69 67.4201 241.835 67.7468C240.985 68.0681 240.024 68.2287 238.952 68.2287C237.46 68.2287 236.126 67.8911 234.95 67.2159C233.779 66.5407 232.853 65.5633 232.173 64.2837C231.497 63.0041 231.16 61.455 231.16 59.6364C231.16 57.8123 231.503 56.2604 232.189 54.9808C232.875 53.7012 233.806 52.7266 234.982 52.0568C236.158 51.3816 237.482 51.044 238.952 51.044C239.921 51.044 240.819 51.1802 241.647 51.4524C242.48 51.7247 243.218 52.1222 243.86 52.6449C244.503 53.1622 245.026 53.7965 245.429 54.5479C245.837 55.2994 246.098 56.1597 246.213 57.1289ZM257.823 56.0835C257.758 55.4246 257.477 54.9128 256.982 54.5479C256.486 54.1831 255.814 54.0007 254.964 54.0007C254.387 54.0007 253.9 54.0824 253.502 54.2457C253.105 54.4036 252.8 54.6242 252.588 54.9073C252.381 55.1905 252.277 55.5117 252.277 55.8711C252.266 56.1706 252.329 56.4319 252.465 56.6552C252.607 56.8784 252.8 57.0717 253.045 57.2351C253.29 57.393 253.573 57.5318 253.894 57.6516C254.216 57.766 254.559 57.864 254.923 57.9457L256.426 58.305C257.156 58.4684 257.826 58.6862 258.436 58.9585C259.045 59.2307 259.574 59.5656 260.02 59.9631C260.467 60.3606 260.812 60.8288 261.057 61.3679C261.308 61.907 261.436 62.525 261.441 63.2219C261.436 64.2456 261.174 65.1332 260.657 65.8846C260.145 66.6306 259.405 67.2105 258.436 67.6243C257.472 68.0327 256.309 68.2369 254.948 68.2369C253.598 68.2369 252.421 68.0299 251.42 67.6161C250.423 67.2023 249.644 66.5897 249.084 65.7784C248.528 64.9616 248.237 63.9516 248.21 62.7482H251.632C251.67 63.3091 251.831 63.7773 252.114 64.1531C252.402 64.5233 252.786 64.8037 253.265 64.9943C253.75 65.1795 254.297 65.272 254.907 65.272C255.506 65.272 256.026 65.1849 256.467 65.0107C256.914 64.8364 257.259 64.5941 257.504 64.2837C257.749 63.9734 257.872 63.6167 257.872 63.2138C257.872 62.8381 257.76 62.5223 257.537 62.2663C257.319 62.0104 256.998 61.7926 256.573 61.6129C256.154 61.4332 255.64 61.2699 255.03 61.1229L253.208 60.6655C251.798 60.3224 250.684 59.7861 249.868 59.0565C249.051 58.3268 248.645 57.344 248.651 56.108C248.645 55.0952 248.915 54.2103 249.459 53.4535C250.009 52.6966 250.763 52.1058 251.722 51.6811C252.68 51.2564 253.769 51.044 254.989 51.044C256.23 51.044 257.314 51.2564 258.24 51.6811C259.171 52.1058 259.895 52.6966 260.412 53.4535C260.929 54.2103 261.196 55.087 261.213 56.0835H257.823ZM272.894 56.0835C272.829 55.4246 272.549 54.9128 272.053 54.5479C271.557 54.1831 270.885 54.0007 270.036 54.0007C269.458 54.0007 268.971 54.0824 268.574 54.2457C268.176 54.4036 267.871 54.6242 267.659 54.9073C267.452 55.1905 267.348 55.5117 267.348 55.8711C267.338 56.1706 267.4 56.4319 267.536 56.6552C267.678 56.8784 267.871 57.0717 268.116 57.2351C268.361 57.393 268.644 57.5318 268.966 57.6516C269.287 57.766 269.63 57.864 269.995 57.9457L271.498 58.305C272.227 58.4684 272.897 58.6862 273.507 58.9585C274.117 59.2307 274.645 59.5656 275.091 59.9631C275.538 60.3606 275.884 60.8288 276.129 61.3679C276.379 61.907 276.507 62.525 276.513 63.2219C276.507 64.2456 276.246 65.1332 275.728 65.8846C275.217 66.6306 274.476 67.2105 273.507 67.6243C272.543 68.0327 271.381 68.2369 270.019 68.2369C268.669 68.2369 267.493 68.0299 266.491 67.6161C265.494 67.2023 264.716 66.5897 264.155 65.7784C263.6 64.9616 263.308 63.9516 263.281 62.7482H266.703C266.741 63.3091 266.902 63.7773 267.185 64.1531C267.474 64.5233 267.858 64.8037 268.337 64.9943C268.821 65.1795 269.369 65.272 269.978 65.272C270.577 65.272 271.097 65.1849 271.538 65.0107C271.985 64.8364 272.331 64.5941 272.576 64.2837C272.821 63.9734 272.943 63.6167 272.943 63.2138C272.943 62.8381 272.832 62.5223 272.608 62.2663C272.391 62.0104 272.069 61.7926 271.645 61.6129C271.225 61.4332 270.711 61.2699 270.101 61.1229L268.28 60.6655C266.869 60.3224 265.756 59.7861 264.939 59.0565C264.122 58.3268 263.717 57.344 263.722 56.108C263.717 55.0952 263.986 54.2103 264.531 53.4535C265.081 52.6966 265.835 52.1058 266.793 51.6811C267.751 51.2564 268.84 51.044 270.06 51.044C271.302 51.044 272.385 51.2564 273.311 51.6811C274.242 52.1058 274.966 52.6966 275.483 53.4535C276.001 54.2103 276.267 55.087 276.284 56.0835H272.894ZM284.976 68.2287C283.757 68.2287 282.67 68.0191 281.717 67.5998C280.77 67.1751 280.021 66.5924 279.471 65.8519C278.927 65.1059 278.646 64.2456 278.63 63.271H282.191C282.213 63.6793 282.346 64.0387 282.591 64.3491C282.842 64.654 283.174 64.8909 283.588 65.0597C284.002 65.2285 284.467 65.3129 284.984 65.3129C285.523 65.3129 286 65.2176 286.414 65.027C286.828 64.8364 287.152 64.5723 287.386 64.2347C287.62 63.8971 287.737 63.5078 287.737 63.0668C287.737 62.6203 287.612 62.2255 287.361 61.8825C287.116 61.534 286.762 61.2617 286.299 61.0657C285.842 60.8697 285.297 60.7717 284.666 60.7717H283.106V58.1744H284.666C285.199 58.1744 285.67 58.0818 286.079 57.8967C286.493 57.7115 286.814 57.4556 287.043 57.1289C287.271 56.7968 287.386 56.4102 287.386 55.9691C287.386 55.5498 287.285 55.1823 287.083 54.8665C286.887 54.5452 286.61 54.2947 286.25 54.1151C285.896 53.9354 285.483 53.8455 285.009 53.8455C284.53 53.8455 284.091 53.9326 283.694 54.1069C283.296 54.2757 282.978 54.518 282.738 54.8338C282.499 55.1496 282.371 55.5199 282.354 55.9446H278.965C278.981 54.9808 279.256 54.1314 279.79 53.3963C280.323 52.6612 281.042 52.0868 281.946 51.6729C282.855 51.2537 283.882 51.044 285.025 51.044C286.18 51.044 287.19 51.2537 288.055 51.6729C288.921 52.0922 289.594 52.6585 290.073 53.3718C290.557 54.0797 290.797 54.8746 290.792 55.7567C290.797 56.6933 290.506 57.4747 289.918 58.1009C289.335 58.727 288.575 59.1245 287.639 59.2933V59.424C288.869 59.5819 289.806 60.0094 290.449 60.7063C291.096 61.3978 291.418 62.2636 291.412 63.3036C291.418 64.2565 291.143 65.1032 290.587 65.8438C290.037 66.5843 289.278 67.1669 288.309 67.5916C287.339 68.0163 286.229 68.2287 284.976 68.2287Z" fill="#F82222"/>
<path d="M245.273 274.01L262 274.01L262 277.546L245.273 277.546L245.273 274.01ZM254.747 267.686L262 267.686L262 271.165L249.455 271.165L249.455 267.849L251.668 267.849L251.668 267.702C250.938 267.424 250.361 266.959 249.936 266.305C249.506 265.652 249.291 264.86 249.291 263.929C249.291 263.057 249.482 262.298 249.863 261.65C250.244 261.002 250.789 260.498 251.496 260.139C252.199 259.78 253.037 259.6 254.012 259.6L262 259.6L262 263.079L254.633 263.079C253.865 263.074 253.266 263.27 252.836 263.667C252.4 264.065 252.183 264.612 252.183 265.309C252.183 265.777 252.283 266.191 252.485 266.551C252.686 266.904 252.98 267.182 253.367 267.384C253.748 267.58 254.208 267.68 254.747 267.686ZM249.455 250.185L252.068 250.185L252.068 257.74L249.455 257.74L249.455 250.185ZM246.449 256.025L246.449 252.545L258.145 252.545C258.466 252.545 258.717 252.496 258.896 252.398C259.071 252.3 259.193 252.164 259.264 251.99C259.335 251.81 259.37 251.603 259.37 251.369C259.37 251.206 259.356 251.042 259.329 250.879C259.297 250.716 259.272 250.59 259.256 250.503L261.845 249.956C261.899 250.13 261.962 250.375 262.033 250.691C262.109 251.007 262.155 251.391 262.172 251.843C262.204 252.681 262.093 253.416 261.837 254.048C261.581 254.674 261.183 255.161 260.644 255.51C260.105 255.858 259.424 256.03 258.602 256.025L246.449 256.025ZM262.245 242.336C262.245 243.626 261.984 244.737 261.461 245.668C260.933 246.594 260.187 247.307 259.223 247.808C258.254 248.309 257.108 248.559 255.784 248.559C254.494 248.559 253.361 248.309 252.387 247.808C251.412 247.307 250.652 246.602 250.108 245.692C249.563 244.778 249.291 243.705 249.291 242.474C249.291 241.647 249.425 240.876 249.691 240.163C249.953 239.444 250.348 238.818 250.876 238.284C251.404 237.745 252.068 237.326 252.869 237.027C253.664 236.727 254.595 236.577 255.662 236.577L256.618 236.577L256.618 247.171L254.461 247.171L254.461 239.853C253.96 239.853 253.517 239.962 253.13 240.179C252.743 240.397 252.441 240.699 252.223 241.086C252 241.467 251.888 241.911 251.888 242.417C251.888 242.945 252.011 243.414 252.256 243.822C252.496 244.225 252.82 244.541 253.228 244.77C253.631 244.998 254.08 245.115 254.576 245.121L256.626 245.121C257.246 245.121 257.783 245.006 258.235 244.778C258.687 244.544 259.035 244.214 259.28 243.789C259.525 243.365 259.648 242.861 259.648 242.278C259.648 241.892 259.593 241.538 259.484 241.217C259.375 240.895 259.212 240.62 258.994 240.392C258.777 240.163 258.51 239.989 258.194 239.869L258.406 236.651C259.179 236.814 259.855 237.149 260.432 237.656C261.004 238.156 261.45 238.804 261.771 239.599C262.087 240.389 262.245 241.301 262.245 242.336ZM245.273 230.827L262 230.827L262 234.307L245.273 234.307L245.273 230.827ZM245.273 224.561L262 224.561L262 228.04L245.273 228.04L245.273 224.561ZM262 221.774L249.455 221.774L249.455 218.294L262 218.294L262 221.774ZM247.837 220.026C247.837 220.543 247.666 220.987 247.323 221.357C246.974 221.722 246.558 221.904 246.073 221.904C245.594 221.904 245.183 221.722 244.84 221.357C244.491 220.987 244.317 220.543 244.317 220.026C244.317 219.508 244.491 219.067 244.84 218.703C245.183 218.332 245.594 218.147 246.073 218.147C246.558 218.147 246.974 218.332 247.323 218.703C247.666 219.067 247.837 219.508 247.837 220.026ZM249.455 215.507L249.455 212.028L262.621 212.028C263.59 212.028 264.374 212.218 264.973 212.599C265.572 212.98 266.01 213.528 266.288 214.241C266.566 214.949 266.705 215.796 266.705 216.781C266.705 216.901 266.702 217.015 266.696 217.124C266.696 217.239 266.694 217.358 266.688 217.484L263.968 217.484C263.974 217.391 263.977 217.309 263.977 217.239C263.982 217.173 263.985 217.102 263.985 217.026C263.985 216.465 263.865 216.073 263.625 215.85C263.391 215.621 263.037 215.507 262.564 215.507L249.455 215.507ZM247.837 213.775C247.837 214.287 247.666 214.728 247.323 215.099C246.974 215.469 246.558 215.654 246.073 215.654C245.594 215.654 245.183 215.469 244.84 215.099C244.491 214.728 244.317 214.287 244.317 213.775C244.317 213.253 244.491 212.809 244.84 212.444C245.183 212.074 245.594 211.889 246.073 211.889C246.558 211.889 246.974 212.074 247.323 212.444C247.666 212.809 247.837 213.253 247.837 213.775Z" fill="black"/>
<path d="M332.454 191V174.273H339.053C340.317 174.273 341.395 174.499 342.288 174.951C343.186 175.397 343.869 176.031 344.338 176.854C344.811 177.67 345.048 178.632 345.048 179.737C345.048 180.848 344.809 181.803 344.33 182.604C343.85 183.399 343.156 184.009 342.247 184.433C341.343 184.858 340.248 185.07 338.963 185.07H334.545V182.228H338.392C339.067 182.228 339.628 182.135 340.074 181.95C340.521 181.765 340.853 181.487 341.071 181.117C341.294 180.747 341.406 180.287 341.406 179.737C341.406 179.181 341.294 178.713 341.071 178.332C340.853 177.951 340.518 177.662 340.066 177.466C339.62 177.265 339.056 177.164 338.375 177.164H335.99V191H332.454ZM341.487 183.388L345.645 191H341.74L337.673 183.388H341.487ZM352.997 191.245C351.707 191.245 350.596 190.984 349.665 190.461C348.739 189.933 348.026 189.187 347.525 188.223C347.024 187.254 346.774 186.108 346.774 184.784C346.774 183.494 347.024 182.361 347.525 181.387C348.026 180.412 348.731 179.652 349.641 179.108C350.555 178.563 351.628 178.291 352.859 178.291C353.686 178.291 354.457 178.425 355.17 178.691C355.889 178.953 356.515 179.348 357.049 179.876C357.588 180.404 358.007 181.068 358.306 181.869C358.606 182.664 358.756 183.595 358.756 184.662V185.618H348.162V183.461H355.48C355.48 182.96 355.371 182.517 355.154 182.13C354.936 181.743 354.634 181.441 354.247 181.223C353.866 181 353.422 180.888 352.916 180.888C352.388 180.888 351.919 181.011 351.511 181.256C351.108 181.496 350.792 181.82 350.563 182.228C350.335 182.631 350.218 183.08 350.212 183.576V185.626C350.212 186.246 350.327 186.783 350.555 187.235C350.789 187.687 351.119 188.035 351.544 188.28C351.968 188.525 352.472 188.648 353.055 188.648C353.441 188.648 353.795 188.593 354.116 188.484C354.438 188.375 354.713 188.212 354.941 187.994C355.17 187.777 355.344 187.51 355.464 187.194L358.682 187.406C358.519 188.179 358.184 188.855 357.677 189.432C357.177 190.004 356.529 190.45 355.734 190.771C354.944 191.087 354.032 191.245 352.997 191.245ZM364.604 191.237C363.803 191.237 363.09 191.098 362.464 190.82C361.838 190.537 361.342 190.121 360.977 189.571C360.618 189.015 360.438 188.324 360.438 187.496C360.438 186.799 360.566 186.214 360.822 185.74C361.078 185.266 361.426 184.885 361.867 184.597C362.309 184.308 362.809 184.09 363.37 183.943C363.937 183.796 364.53 183.693 365.151 183.633C365.88 183.557 366.469 183.486 366.915 183.42C367.362 183.35 367.686 183.246 367.887 183.11C368.088 182.974 368.189 182.772 368.189 182.506V182.457C368.189 181.939 368.026 181.539 367.699 181.256C367.378 180.973 366.92 180.831 366.327 180.831C365.701 180.831 365.203 180.97 364.832 181.248C364.462 181.52 364.217 181.863 364.097 182.277L360.879 182.016C361.043 181.253 361.364 180.594 361.843 180.039C362.322 179.478 362.94 179.048 363.697 178.749C364.459 178.444 365.341 178.291 366.343 178.291C367.04 178.291 367.707 178.373 368.344 178.536C368.987 178.7 369.556 178.953 370.051 179.296C370.552 179.639 370.947 180.08 371.236 180.619C371.524 181.153 371.669 181.792 371.669 182.538V191H368.369V189.26H368.271C368.069 189.652 367.8 189.998 367.462 190.298C367.125 190.592 366.719 190.823 366.245 190.992C365.772 191.155 365.224 191.237 364.604 191.237ZM365.6 188.836C366.112 188.836 366.564 188.735 366.956 188.533C367.348 188.326 367.656 188.049 367.879 187.7C368.102 187.352 368.214 186.957 368.214 186.516V185.185C368.105 185.255 367.955 185.321 367.764 185.381C367.579 185.435 367.37 185.487 367.136 185.536C366.901 185.579 366.667 185.62 366.433 185.658C366.199 185.691 365.987 185.721 365.796 185.748C365.388 185.808 365.031 185.903 364.726 186.034C364.421 186.165 364.184 186.342 364.016 186.565C363.847 186.783 363.762 187.055 363.762 187.382C363.762 187.855 363.934 188.218 364.277 188.468C364.625 188.713 365.066 188.836 365.6 188.836ZM380.036 191.245C378.751 191.245 377.646 190.973 376.72 190.428C375.8 189.878 375.092 189.116 374.597 188.141C374.107 187.167 373.862 186.045 373.862 184.776C373.862 183.491 374.109 182.364 374.605 181.395C375.106 180.42 375.816 179.661 376.737 179.116C377.657 178.566 378.751 178.291 380.02 178.291C381.114 178.291 382.073 178.49 382.895 178.887C383.717 179.285 384.368 179.843 384.847 180.562C385.326 181.281 385.59 182.125 385.639 183.094H382.356C382.263 182.468 382.018 181.964 381.621 181.583C381.229 181.196 380.714 181.003 380.077 181.003C379.538 181.003 379.067 181.15 378.664 181.444C378.267 181.732 377.956 182.154 377.733 182.71C377.51 183.265 377.398 183.938 377.398 184.727C377.398 185.528 377.507 186.208 377.725 186.769C377.948 187.33 378.261 187.757 378.664 188.051C379.067 188.346 379.538 188.493 380.077 188.493C380.475 188.493 380.831 188.411 381.147 188.248C381.468 188.084 381.732 187.847 381.939 187.537C382.152 187.221 382.291 186.843 382.356 186.402H385.639C385.585 187.36 385.323 188.204 384.855 188.934C384.392 189.658 383.753 190.224 382.936 190.632C382.119 191.041 381.153 191.245 380.036 191.245ZM394.54 178.455V181.068H386.985V178.455H394.54ZM388.7 175.449H392.18V187.145C392.18 187.466 392.229 187.717 392.327 187.896C392.425 188.071 392.561 188.193 392.735 188.264C392.915 188.335 393.122 188.37 393.356 188.37C393.519 188.37 393.682 188.356 393.846 188.329C394.009 188.297 394.134 188.272 394.221 188.256L394.769 190.845C394.594 190.899 394.349 190.962 394.034 191.033C393.718 191.109 393.334 191.155 392.882 191.172C392.043 191.204 391.308 191.093 390.677 190.837C390.05 190.581 389.563 190.183 389.215 189.644C388.866 189.105 388.695 188.424 388.7 187.602V175.449ZM398.84 191.212C398.301 191.212 397.838 191.022 397.452 190.641C397.071 190.254 396.88 189.791 396.88 189.252C396.88 188.719 397.071 188.261 397.452 187.88C397.838 187.499 398.301 187.308 398.84 187.308C399.363 187.308 399.82 187.499 400.212 187.88C400.604 188.261 400.8 188.719 400.8 189.252C400.8 189.612 400.708 189.941 400.523 190.24C400.343 190.534 400.106 190.771 399.812 190.951C399.518 191.125 399.194 191.212 398.84 191.212ZM403.657 178.455H407.136V191.621C407.136 192.59 406.946 193.374 406.565 193.973C406.184 194.572 405.636 195.01 404.923 195.288C404.215 195.566 403.368 195.705 402.383 195.705C402.263 195.705 402.149 195.702 402.04 195.696C401.926 195.696 401.806 195.694 401.68 195.688V192.968C401.773 192.974 401.855 192.977 401.926 192.977C401.991 192.982 402.062 192.985 402.138 192.985C402.699 192.985 403.091 192.865 403.314 192.625C403.543 192.391 403.657 192.037 403.657 191.564V178.455ZM405.389 176.837C404.877 176.837 404.436 176.666 404.065 176.323C403.695 175.974 403.51 175.558 403.51 175.073C403.51 174.594 403.695 174.183 404.065 173.84C404.436 173.491 404.877 173.317 405.389 173.317C405.911 173.317 406.355 173.491 406.72 173.84C407.09 174.183 407.275 174.594 407.275 175.073C407.275 175.558 407.09 175.974 406.72 176.323C406.355 176.666 405.911 176.837 405.389 176.837ZM420.362 182.032L417.176 182.228C417.122 181.956 417.005 181.711 416.825 181.493C416.646 181.27 416.409 181.093 416.115 180.962C415.826 180.826 415.48 180.758 415.077 180.758C414.538 180.758 414.084 180.872 413.713 181.101C413.343 181.324 413.158 181.624 413.158 181.999C413.158 182.299 413.278 182.552 413.517 182.759C413.757 182.966 414.168 183.132 414.751 183.257L417.021 183.714C418.241 183.965 419.15 184.368 419.749 184.923C420.348 185.479 420.648 186.208 420.648 187.112C420.648 187.934 420.405 188.656 419.921 189.277C419.442 189.897 418.783 190.382 417.944 190.73C417.111 191.074 416.15 191.245 415.061 191.245C413.4 191.245 412.077 190.899 411.092 190.208C410.112 189.511 409.537 188.563 409.368 187.365L412.79 187.186C412.894 187.692 413.144 188.079 413.542 188.346C413.939 188.607 414.449 188.738 415.069 188.738C415.679 188.738 416.169 188.621 416.539 188.386C416.915 188.147 417.106 187.839 417.111 187.463C417.106 187.148 416.972 186.889 416.711 186.688C416.45 186.481 416.047 186.323 415.502 186.214L413.33 185.781C412.104 185.536 411.192 185.111 410.593 184.507C410 183.902 409.703 183.132 409.703 182.195C409.703 181.389 409.921 180.695 410.357 180.113C410.798 179.53 411.416 179.081 412.211 178.765C413.011 178.449 413.948 178.291 415.02 178.291C416.605 178.291 417.852 178.626 418.761 179.296C419.676 179.966 420.209 180.878 420.362 182.032Z" fill="#0076B2"/>
<path d="M346.528 64V34.9091H365.79V39.9801H352.679V46.9119H364.511V51.983H352.679V64H346.528ZM369.813 64V42.1818H375.864V64H369.813ZM372.853 39.3693C371.953 39.3693 371.182 39.071 370.538 38.4744C369.903 37.8684 369.586 37.1439 369.586 36.3011C369.586 35.4678 369.903 34.7528 370.538 34.1562C371.182 33.5502 371.953 33.2472 372.853 33.2472C373.753 33.2472 374.52 33.5502 375.154 34.1562C375.798 34.7528 376.12 35.4678 376.12 36.3011C376.12 37.1439 375.798 37.8684 375.154 38.4744C374.52 39.071 373.753 39.3693 372.853 39.3693ZM390.541 72.6364C388.581 72.6364 386.9 72.3665 385.499 71.8267C384.107 71.2964 382.999 70.572 382.175 69.6534C381.351 68.7348 380.816 67.7027 380.57 66.5568L386.166 65.804C386.337 66.2396 386.607 66.6468 386.976 67.0256C387.345 67.4044 387.833 67.7074 388.439 67.9347C389.054 68.1714 389.803 68.2898 390.683 68.2898C392 68.2898 393.084 67.9678 393.936 67.3239C394.798 66.6894 395.229 65.6241 395.229 64.1278V60.1364H394.973C394.708 60.7424 394.31 61.3153 393.78 61.8551C393.25 62.3949 392.568 62.8352 391.734 63.1761C390.901 63.517 389.907 63.6875 388.751 63.6875C387.113 63.6875 385.622 63.3087 384.277 62.5511C382.942 61.7841 381.876 60.6146 381.081 59.0426C380.295 57.4612 379.902 55.4631 379.902 53.0483C379.902 50.5767 380.304 48.5123 381.109 46.8551C381.914 45.1979 382.984 43.9574 384.32 43.1335C385.664 42.3097 387.137 41.8977 388.737 41.8977C389.959 41.8977 390.982 42.1061 391.805 42.5227C392.629 42.9299 393.292 43.4413 393.794 44.0568C394.305 44.6629 394.698 45.2595 394.973 45.8466H395.2V42.1818H401.209V64.2131C401.209 66.0691 400.754 67.6222 399.845 68.8722C398.936 70.1222 397.677 71.0597 396.067 71.6847C394.466 72.3191 392.625 72.6364 390.541 72.6364ZM390.669 59.142C391.644 59.142 392.468 58.9006 393.141 58.4176C393.822 57.9252 394.343 57.2244 394.703 56.3153C395.072 55.3968 395.257 54.2983 395.257 53.0199C395.257 51.7415 395.077 50.6335 394.717 49.696C394.357 48.7491 393.837 48.0152 393.155 47.4943C392.473 46.9735 391.644 46.7131 390.669 46.7131C389.675 46.7131 388.837 46.983 388.155 47.5227C387.473 48.053 386.957 48.7917 386.607 49.7386C386.256 50.6856 386.081 51.7794 386.081 53.0199C386.081 54.2794 386.256 55.3684 386.607 56.2869C386.966 57.196 387.482 57.9015 388.155 58.4034C388.837 58.8958 389.675 59.142 390.669 59.142ZM406.024 64V42.1818H411.791V46.0312H412.047C412.501 44.7528 413.259 43.7443 414.32 43.0057C415.38 42.267 416.649 41.8977 418.126 41.8977C419.623 41.8977 420.896 42.2718 421.947 43.0199C422.999 43.7585 423.699 44.7623 424.05 46.0312H424.277C424.722 44.7812 425.527 43.7822 426.692 43.0341C427.866 42.2765 429.253 41.8977 430.854 41.8977C432.89 41.8977 434.542 42.5464 435.811 43.8438C437.089 45.1316 437.729 46.9593 437.729 49.3267V64H431.692V50.5199C431.692 49.3078 431.37 48.3987 430.726 47.7926C430.082 47.1866 429.277 46.8835 428.311 46.8835C427.213 46.8835 426.356 47.2339 425.74 47.9347C425.125 48.6259 424.817 49.5398 424.817 50.6761V64H418.95V50.392C418.95 49.322 418.643 48.4697 418.027 47.8352C417.421 47.2008 416.621 46.8835 415.626 46.8835C414.954 46.8835 414.348 47.054 413.808 47.3949C413.278 47.7263 412.857 48.1951 412.544 48.8011C412.232 49.3977 412.075 50.0985 412.075 50.9034V64H406.024ZM448.73 64.4119C447.338 64.4119 446.098 64.1705 445.009 63.6875C443.92 63.1951 443.058 62.4706 442.423 61.5142C441.798 60.5483 441.486 59.3456 441.486 57.9062C441.486 56.6941 441.708 55.6761 442.153 54.8523C442.598 54.0284 443.205 53.3655 443.972 52.8636C444.739 52.3617 445.61 51.983 446.585 51.7273C447.57 51.4716 448.602 51.2917 449.682 51.1875C450.951 51.0549 451.973 50.9318 452.75 50.8182C453.527 50.6951 454.09 50.5152 454.44 50.2784C454.791 50.0417 454.966 49.6913 454.966 49.2273V49.142C454.966 48.2424 454.682 47.5464 454.114 47.054C453.555 46.5616 452.759 46.3153 451.727 46.3153C450.638 46.3153 449.772 46.5568 449.128 47.0398C448.484 47.5133 448.058 48.1098 447.849 48.8295L442.253 48.375C442.537 47.0492 443.096 45.9034 443.929 44.9375C444.762 43.9621 445.837 43.214 447.153 42.6932C448.479 42.1629 450.013 41.8977 451.756 41.8977C452.968 41.8977 454.128 42.0398 455.236 42.3239C456.353 42.608 457.343 43.0483 458.205 43.6449C459.076 44.2415 459.762 45.0085 460.264 45.946C460.766 46.8741 461.017 47.9867 461.017 49.2841V64H455.278V60.9744H455.108C454.758 61.6562 454.289 62.2576 453.702 62.7784C453.115 63.2898 452.409 63.6922 451.585 63.9858C450.761 64.2699 449.81 64.4119 448.73 64.4119ZM450.463 60.2358C451.353 60.2358 452.139 60.0606 452.821 59.7102C453.503 59.3504 454.038 58.8674 454.426 58.2614C454.814 57.6553 455.009 56.9687 455.009 56.2017V53.8864C454.819 54.0095 454.559 54.1231 454.227 54.2273C453.905 54.322 453.541 54.4119 453.134 54.4972C452.726 54.5729 452.319 54.6439 451.912 54.7102C451.505 54.767 451.135 54.8191 450.804 54.8665C450.094 54.9706 449.473 55.1364 448.943 55.3636C448.413 55.5909 448.001 55.8987 447.707 56.2869C447.414 56.6657 447.267 57.1392 447.267 57.7074C447.267 58.5312 447.565 59.161 448.162 59.5966C448.768 60.0227 449.535 60.2358 450.463 60.2358Z" fill="#9569F4"/>
<path d="M395.213 278.129H391.635C391.57 277.666 391.437 277.255 391.235 276.896C391.034 276.531 390.775 276.22 390.459 275.964C390.143 275.709 389.779 275.513 389.365 275.376C388.956 275.24 388.513 275.172 388.033 275.172C387.168 275.172 386.413 275.387 385.771 275.817C385.128 276.242 384.63 276.863 384.276 277.68C383.922 278.491 383.745 279.477 383.745 280.636C383.745 281.829 383.922 282.831 384.276 283.642C384.636 284.453 385.137 285.066 385.779 285.48C386.422 285.894 387.165 286.1 388.009 286.1C388.483 286.1 388.921 286.038 389.324 285.913C389.732 285.787 390.094 285.605 390.41 285.365C390.726 285.12 390.987 284.824 391.194 284.475C391.407 284.127 391.554 283.729 391.635 283.283L395.213 283.299C395.12 284.067 394.889 284.807 394.518 285.521C394.154 286.228 393.661 286.863 393.04 287.424C392.425 287.979 391.69 288.42 390.835 288.747C389.985 289.068 389.024 289.229 387.952 289.229C386.46 289.229 385.126 288.891 383.95 288.216C382.779 287.541 381.853 286.563 381.173 285.284C380.497 284.004 380.16 282.455 380.16 280.636C380.16 278.812 380.503 277.26 381.189 275.981C381.875 274.701 382.806 273.727 383.982 273.057C385.158 272.382 386.482 272.044 387.952 272.044C388.921 272.044 389.819 272.18 390.647 272.452C391.48 272.725 392.218 273.122 392.86 273.645C393.503 274.162 394.026 274.797 394.429 275.548C394.837 276.299 395.098 277.16 395.213 278.129ZM401.261 289.237C400.46 289.237 399.747 289.098 399.121 288.82C398.495 288.537 397.999 288.121 397.634 287.571C397.275 287.015 397.095 286.324 397.095 285.496C397.095 284.799 397.223 284.214 397.479 283.74C397.735 283.266 398.084 282.885 398.525 282.597C398.966 282.308 399.467 282.09 400.028 281.943C400.594 281.796 401.187 281.693 401.808 281.633C402.538 281.557 403.126 281.486 403.572 281.42C404.019 281.35 404.343 281.246 404.544 281.11C404.746 280.974 404.846 280.772 404.846 280.506V280.457C404.846 279.939 404.683 279.539 404.356 279.256C404.035 278.973 403.578 278.831 402.984 278.831C402.358 278.831 401.86 278.97 401.49 279.248C401.119 279.52 400.874 279.863 400.754 280.277L397.536 280.016C397.7 279.253 398.021 278.594 398.5 278.039C398.979 277.478 399.597 277.048 400.354 276.749C401.117 276.444 401.999 276.291 403.001 276.291C403.698 276.291 404.365 276.373 405.002 276.536C405.644 276.7 406.213 276.953 406.709 277.296C407.21 277.639 407.604 278.08 407.893 278.619C408.182 279.153 408.326 279.792 408.326 280.538V289H405.026V287.26H404.928C404.727 287.652 404.457 287.998 404.119 288.298C403.782 288.592 403.376 288.823 402.903 288.992C402.429 289.155 401.882 289.237 401.261 289.237ZM402.257 286.836C402.769 286.836 403.221 286.735 403.613 286.533C404.005 286.326 404.313 286.049 404.536 285.7C404.759 285.352 404.871 284.957 404.871 284.516V283.185C404.762 283.255 404.612 283.321 404.422 283.381C404.237 283.435 404.027 283.487 403.793 283.536C403.559 283.579 403.325 283.62 403.09 283.658C402.856 283.691 402.644 283.721 402.453 283.748C402.045 283.808 401.688 283.903 401.383 284.034C401.078 284.165 400.842 284.342 400.673 284.565C400.504 284.783 400.42 285.055 400.42 285.382C400.42 285.855 400.591 286.218 400.934 286.468C401.283 286.713 401.724 286.836 402.257 286.836ZM414.505 281.747V289H411.025V276.455H414.341V278.668H414.488C414.766 277.938 415.232 277.361 415.885 276.936C416.538 276.506 417.331 276.291 418.262 276.291C419.133 276.291 419.893 276.482 420.54 276.863C421.188 277.244 421.692 277.789 422.051 278.496C422.411 279.199 422.591 280.037 422.591 281.012V289H419.111V281.633C419.117 280.865 418.921 280.266 418.523 279.836C418.126 279.4 417.578 279.183 416.881 279.183C416.413 279.183 415.999 279.283 415.64 279.485C415.286 279.686 415.008 279.98 414.807 280.367C414.611 280.748 414.51 281.208 414.505 281.747ZM436.58 276.455L432.194 289H428.273L423.887 276.455H427.563L430.168 285.431H430.299L432.896 276.455H436.58ZM441.601 289.237C440.8 289.237 440.087 289.098 439.461 288.82C438.835 288.537 438.339 288.121 437.974 287.571C437.615 287.015 437.435 286.324 437.435 285.496C437.435 284.799 437.563 284.214 437.819 283.74C438.075 283.266 438.423 282.885 438.865 282.597C439.306 282.308 439.807 282.09 440.367 281.943C440.934 281.796 441.527 281.693 442.148 281.633C442.878 281.557 443.466 281.486 443.912 281.42C444.359 281.35 444.683 281.246 444.884 281.11C445.086 280.974 445.186 280.772 445.186 280.506V280.457C445.186 279.939 445.023 279.539 444.696 279.256C444.375 278.973 443.918 278.831 443.324 278.831C442.698 278.831 442.2 278.97 441.829 279.248C441.459 279.52 441.214 279.863 441.094 280.277L437.876 280.016C438.04 279.253 438.361 278.594 438.84 278.039C439.319 277.478 439.937 277.048 440.694 276.749C441.456 276.444 442.338 276.291 443.34 276.291C444.037 276.291 444.704 276.373 445.341 276.536C445.984 276.7 446.553 276.953 447.048 277.296C447.549 277.639 447.944 278.08 448.233 278.619C448.521 279.153 448.666 279.792 448.666 280.538V289H445.366V287.26H445.268C445.066 287.652 444.797 287.998 444.459 288.298C444.122 288.592 443.716 288.823 443.242 288.992C442.769 289.155 442.221 289.237 441.601 289.237ZM442.597 286.836C443.109 286.836 443.561 286.735 443.953 286.533C444.345 286.326 444.653 286.049 444.876 285.7C445.099 285.352 445.211 284.957 445.211 284.516V283.185C445.102 283.255 444.952 283.321 444.762 283.381C444.576 283.435 444.367 283.487 444.133 283.536C443.898 283.579 443.664 283.62 443.43 283.658C443.196 283.691 442.984 283.721 442.793 283.748C442.385 283.808 442.028 283.903 441.723 284.034C441.418 284.165 441.181 284.342 441.013 284.565C440.844 284.783 440.759 285.055 440.759 285.382C440.759 285.855 440.931 286.218 441.274 286.468C441.622 286.713 442.064 286.836 442.597 286.836Z" fill="#4EA9FF"/>
<path d="M300.465 131.636H307.861L315.672 150.693H316.004L323.815 131.636H331.211V160H325.394V141.539H325.159L317.819 159.862H313.858L306.517 141.469H306.282V160H300.465V131.636ZM345.652 160.415C343.501 160.415 341.641 159.958 340.071 159.044C338.511 158.121 337.306 156.838 336.456 155.194C335.607 153.542 335.182 151.626 335.182 149.447C335.182 147.249 335.607 145.329 336.456 143.685C337.306 142.033 338.511 140.749 340.071 139.835C341.641 138.912 343.501 138.45 345.652 138.45C347.804 138.45 349.66 138.912 351.22 139.835C352.79 140.749 353.999 142.033 354.848 143.685C355.698 145.329 356.123 147.249 356.123 149.447C356.123 151.626 355.698 153.542 354.848 155.194C353.999 156.838 352.79 158.121 351.22 159.044C349.66 159.958 347.804 160.415 345.652 160.415ZM345.68 155.845C346.659 155.845 347.476 155.568 348.131 155.014C348.787 154.451 349.281 153.685 349.613 152.715C349.955 151.746 350.126 150.642 350.126 149.405C350.126 148.168 349.955 147.065 349.613 146.095C349.281 145.126 348.787 144.359 348.131 143.796C347.476 143.233 346.659 142.951 345.68 142.951C344.692 142.951 343.861 143.233 343.187 143.796C342.522 144.359 342.019 145.126 341.678 146.095C341.345 147.065 341.179 148.168 341.179 149.405C341.179 150.642 341.345 151.746 341.678 152.715C342.019 153.685 342.522 154.451 343.187 155.014C343.861 155.568 344.692 155.845 345.68 155.845ZM365.859 147.702V160H359.959V138.727H365.582V142.48H365.831C366.302 141.243 367.091 140.265 368.199 139.544C369.307 138.815 370.651 138.45 372.229 138.45C373.707 138.45 374.995 138.773 376.093 139.42C377.192 140.066 378.046 140.989 378.656 142.19C379.265 143.381 379.57 144.803 379.57 146.455V160H373.67V147.508C373.679 146.206 373.347 145.19 372.673 144.461C371.999 143.722 371.071 143.353 369.889 143.353C369.095 143.353 368.393 143.524 367.784 143.865C367.184 144.207 366.713 144.706 366.371 145.361C366.039 146.007 365.868 146.788 365.859 147.702ZM393.803 168.42C391.892 168.42 390.253 168.157 388.887 167.631C387.53 167.114 386.449 166.408 385.646 165.512C384.843 164.616 384.321 163.61 384.081 162.493L389.538 161.759C389.704 162.184 389.967 162.581 390.327 162.95C390.687 163.319 391.163 163.615 391.754 163.836C392.354 164.067 393.083 164.183 393.942 164.183C395.225 164.183 396.282 163.869 397.113 163.241C397.954 162.622 398.374 161.583 398.374 160.125V156.233H398.124C397.866 156.824 397.478 157.382 396.961 157.909C396.444 158.435 395.779 158.864 394.967 159.197C394.154 159.529 393.185 159.695 392.058 159.695C390.461 159.695 389.007 159.326 387.696 158.587C386.394 157.839 385.355 156.699 384.58 155.167C383.813 153.625 383.43 151.676 383.43 149.322C383.43 146.912 383.823 144.9 384.607 143.284C385.392 141.668 386.436 140.458 387.737 139.655C389.048 138.852 390.484 138.45 392.045 138.45C393.236 138.45 394.233 138.653 395.036 139.06C395.839 139.457 396.486 139.955 396.975 140.555C397.474 141.146 397.857 141.728 398.124 142.3H398.346V138.727H404.204V160.208C404.204 162.017 403.761 163.532 402.875 164.75C401.988 165.969 400.76 166.883 399.191 167.493C397.631 168.111 395.835 168.42 393.803 168.42ZM393.928 155.263C394.879 155.263 395.682 155.028 396.338 154.557C397.003 154.077 397.51 153.394 397.861 152.507C398.221 151.612 398.401 150.541 398.401 149.294C398.401 148.048 398.226 146.968 397.875 146.054C397.524 145.13 397.017 144.415 396.352 143.907C395.687 143.399 394.879 143.145 393.928 143.145C392.959 143.145 392.142 143.408 391.477 143.935C390.812 144.452 390.309 145.172 389.967 146.095C389.626 147.018 389.455 148.085 389.455 149.294C389.455 150.522 389.626 151.584 389.967 152.48C390.318 153.366 390.821 154.054 391.477 154.543C392.142 155.023 392.959 155.263 393.928 155.263ZM418.511 160.415C416.36 160.415 414.499 159.958 412.93 159.044C411.369 158.121 410.164 156.838 409.315 155.194C408.465 153.542 408.041 151.626 408.041 149.447C408.041 147.249 408.465 145.329 409.315 143.685C410.164 142.033 411.369 140.749 412.93 139.835C414.499 138.912 416.36 138.45 418.511 138.45C420.662 138.45 422.518 138.912 424.078 139.835C425.648 140.749 426.857 142.033 427.707 143.685C428.556 145.329 428.981 147.249 428.981 149.447C428.981 151.626 428.556 153.542 427.707 155.194C426.857 156.838 425.648 158.121 424.078 159.044C422.518 159.958 420.662 160.415 418.511 160.415ZM418.539 155.845C419.517 155.845 420.334 155.568 420.99 155.014C421.645 154.451 422.139 153.685 422.472 152.715C422.813 151.746 422.984 150.642 422.984 149.405C422.984 148.168 422.813 147.065 422.472 146.095C422.139 145.126 421.645 144.359 420.99 143.796C420.334 143.233 419.517 142.951 418.539 142.951C417.551 142.951 416.72 143.233 416.046 143.796C415.381 144.359 414.878 145.126 414.536 146.095C414.204 147.065 414.037 148.168 414.037 149.405C414.037 150.642 414.204 151.746 414.536 152.715C414.878 153.685 415.381 154.451 416.046 155.014C416.72 155.568 417.551 155.845 418.539 155.845ZM442.983 160H432.928V131.636H443.066C445.919 131.636 448.375 132.204 450.434 133.34C452.493 134.466 454.076 136.087 455.184 138.201C456.301 140.315 456.86 142.845 456.86 145.79C456.86 148.745 456.301 151.284 455.184 153.408C454.076 155.531 452.483 157.161 450.406 158.297C448.338 159.432 445.863 160 442.983 160ZM438.925 154.862H442.733C444.506 154.862 445.997 154.548 447.207 153.92C448.426 153.283 449.34 152.3 449.949 150.97C450.568 149.631 450.877 147.905 450.877 145.79C450.877 143.695 450.568 141.982 449.949 140.652C449.34 139.323 448.43 138.344 447.221 137.716C446.011 137.088 444.52 136.775 442.747 136.775H438.925V154.862ZM461.302 160V131.636H472.659C474.745 131.636 476.486 131.946 477.88 132.564C479.274 133.183 480.322 134.042 481.024 135.14C481.725 136.23 482.076 137.485 482.076 138.907C482.076 140.015 481.855 140.989 481.411 141.83C480.968 142.661 480.359 143.344 479.583 143.879C478.817 144.406 477.94 144.779 476.952 145.001V145.278C478.032 145.324 479.043 145.629 479.985 146.192C480.936 146.755 481.707 147.545 482.298 148.56C482.889 149.567 483.184 150.767 483.184 152.161C483.184 153.666 482.81 155.01 482.062 156.191C481.324 157.364 480.23 158.292 478.78 158.975C477.331 159.658 475.544 160 473.42 160H461.302ZM467.299 155.097H472.188C473.859 155.097 475.078 154.779 475.844 154.142C476.61 153.495 476.994 152.637 476.994 151.566C476.994 150.781 476.804 150.088 476.426 149.488C476.047 148.888 475.507 148.417 474.805 148.076C474.113 147.734 473.286 147.563 472.326 147.563H467.299V155.097ZM467.299 143.505H471.745C472.566 143.505 473.296 143.362 473.933 143.076C474.579 142.781 475.087 142.365 475.456 141.83C475.835 141.294 476.024 140.652 476.024 139.904C476.024 138.88 475.659 138.053 474.93 137.425C474.21 136.798 473.185 136.484 471.855 136.484H467.299V143.505Z" fill="#1FAF38"/>
<path d="M425.083 113.472C424.425 113.537 423.913 113.818 423.548 114.313C423.183 114.809 423.001 115.481 423.001 116.331C423.001 116.908 423.082 117.395 423.246 117.793C423.404 118.19 423.624 118.495 423.907 118.707C424.19 118.914 424.512 119.018 424.871 119.018C425.171 119.029 425.432 118.966 425.655 118.83C425.878 118.688 426.072 118.495 426.235 118.25C426.393 118.005 426.532 117.722 426.652 117.401C426.766 117.079 426.864 116.736 426.946 116.371L427.305 114.869C427.468 114.139 427.686 113.469 427.958 112.859C428.231 112.25 428.566 111.721 428.963 111.275C429.361 110.828 429.829 110.483 430.368 110.238C430.907 109.987 431.525 109.859 432.222 109.854C433.246 109.859 434.133 110.121 434.885 110.638C435.631 111.15 436.21 111.89 436.624 112.859C437.033 113.823 437.237 114.986 437.237 116.347C437.237 117.697 437.03 118.873 436.616 119.875C436.202 120.872 435.59 121.65 434.778 122.211C433.962 122.767 432.952 123.058 431.748 123.085L431.748 119.663C432.309 119.625 432.777 119.464 433.153 119.181C433.523 118.893 433.804 118.509 433.994 118.029C434.179 117.545 434.272 116.998 434.272 116.388C434.272 115.789 434.185 115.269 434.011 114.828C433.836 114.381 433.594 114.036 433.284 113.79C432.973 113.545 432.617 113.423 432.214 113.423C431.838 113.423 431.522 113.535 431.266 113.758C431.01 113.976 430.793 114.297 430.613 114.722C430.433 115.141 430.27 115.655 430.123 116.265L429.665 118.087C429.322 119.497 428.786 120.61 428.056 121.427C427.327 122.244 426.344 122.65 425.108 122.644C424.095 122.65 423.21 122.38 422.453 121.836C421.697 121.286 421.106 120.531 420.681 119.573C420.256 118.615 420.044 117.526 420.044 116.306C420.044 115.065 420.256 113.981 420.681 113.055C421.106 112.124 421.697 111.4 422.453 110.883C423.21 110.366 424.087 110.099 425.083 110.082L425.083 113.472ZM431.185 101.161L431.185 98.1556L433.129 96.6446L434.86 95.1581L438.372 92.3566L438.372 95.6563L436.004 97.5839L434.599 98.5722L431.185 101.161ZM428.636 92.1034C430.46 92.1034 432.012 92.4492 433.292 93.1407C434.571 93.8268 435.549 94.7633 436.224 95.9504C436.894 97.132 437.229 98.4606 437.229 99.9362C437.229 101.423 436.891 102.757 436.216 103.938C435.541 105.12 434.563 106.054 433.284 106.74C432.004 107.426 430.455 107.769 428.636 107.769C426.812 107.769 425.26 107.426 423.981 106.74C422.701 106.054 421.727 105.12 421.057 103.938C420.382 102.757 420.044 101.423 420.044 99.9362C420.044 98.4606 420.382 97.132 421.057 95.9504C421.727 94.7633 422.701 93.8268 423.981 93.1407C425.26 92.4492 426.812 92.1034 428.636 92.1034ZM428.636 95.689C427.455 95.689 426.458 95.866 425.647 96.2199C424.836 96.5684 424.22 97.0612 423.801 97.6982C423.382 98.3353 423.172 99.0813 423.172 99.9362C423.172 100.791 423.382 101.537 423.801 102.174C424.22 102.811 424.836 103.307 425.647 103.661C426.458 104.009 427.455 104.183 428.636 104.183C429.818 104.183 430.814 104.009 431.626 103.661C432.437 103.307 433.052 102.811 433.472 102.174C433.891 101.537 434.1 100.791 434.1 99.9362C434.1 99.0813 433.891 98.3353 433.472 97.6982C433.052 97.0612 432.437 96.5684 431.626 96.2199C430.814 95.866 429.818 95.689 428.636 95.689ZM437 89.4837L420.273 89.4837L420.273 85.9471L434.084 85.9471L434.084 78.7759L437 78.7759L437 89.4837Z" fill="black"/>
<path d="M52.2727 165.546L52.2727 161.185L63.5114 156.578L63.5114 156.382L52.2727 151.776L52.2727 147.414L69 147.414L69 150.844L58.1126 150.844L58.1126 150.983L68.9183 155.312L68.9183 157.648L58.0717 161.977L58.0717 162.116L69 162.116L69 165.546L52.2727 165.546ZM52.2727 145.48L52.2727 141.519L59.4766 137.705L59.4766 137.541L52.2727 133.727L52.2727 129.766L63.0866 135.867L69 135.867L69 139.379L63.0866 139.379L52.2727 145.48ZM57.0834 113.437C56.4246 113.502 55.9128 113.783 55.5479 114.278C55.1831 114.774 55.0007 115.446 55.0007 116.295C55.0007 116.873 55.0824 117.36 55.2457 117.757C55.4036 118.155 55.6242 118.46 55.9073 118.672C56.1905 118.879 56.5117 118.983 56.8711 118.983C57.1706 118.993 57.4319 118.931 57.6552 118.795C57.8784 118.653 58.0717 118.46 58.2351 118.215C58.393 117.97 58.5318 117.687 58.6516 117.365C58.766 117.044 58.864 116.701 58.9457 116.336L59.305 114.833C59.4684 114.104 59.6862 113.434 59.9584 112.824C60.2307 112.214 60.5656 111.686 60.9631 111.24C61.3606 110.793 61.8288 110.447 62.3679 110.202C62.907 109.952 63.525 109.824 64.2219 109.819C65.2456 109.824 66.1332 110.085 66.8846 110.603C67.6306 111.114 68.2105 111.855 68.6243 112.824C69.0327 113.788 69.2369 114.951 69.2369 116.312C69.2369 117.662 69.0299 118.838 68.6161 119.84C68.2023 120.837 67.5897 121.615 66.7784 122.176C65.9616 122.732 64.9516 123.023 63.7482 123.05L63.7482 119.628C64.3091 119.59 64.7773 119.429 65.1531 119.146C65.5233 118.857 65.8037 118.473 65.9943 117.994C66.1794 117.51 66.272 116.962 66.272 116.353C66.272 115.754 66.1849 115.234 66.0107 114.793C65.8364 114.346 65.5941 114 65.2837 113.755C64.9734 113.51 64.6167 113.388 64.2138 113.388C63.8381 113.388 63.5223 113.499 63.2663 113.723C63.0104 113.94 62.7926 114.262 62.6129 114.686C62.4332 115.106 62.2699 115.62 62.1229 116.23L61.6655 118.051C61.3224 119.462 60.7861 120.575 60.0565 121.392C59.3268 122.209 58.344 122.614 57.108 122.609C56.0952 122.614 55.2103 122.345 54.4535 121.8C53.6966 121.25 53.1058 120.496 52.6811 119.538C52.2564 118.58 52.044 117.491 52.044 116.271C52.044 115.029 52.2564 113.946 52.6811 113.02C53.1058 112.089 53.6966 111.365 54.4535 110.848C55.2103 110.33 56.087 110.064 57.0834 110.047L57.0834 113.437ZM63.1847 101.126L63.1847 98.1205L65.1285 96.6095L66.8601 95.123L70.3722 92.3215L70.3722 95.6212L68.0035 97.5487L66.5987 98.537L63.1847 101.126ZM60.6364 92.0683C62.4605 92.0683 64.0123 92.414 65.2919 93.1056C66.5715 93.7916 67.5489 94.7282 68.2241 95.9152C68.8938 97.0968 69.2287 98.4254 69.2287 99.901C69.2287 101.388 68.8911 102.722 68.2159 103.903C67.5407 105.085 66.5633 106.019 65.2837 106.705C64.0041 107.391 62.455 107.734 60.6364 107.734C58.8123 107.734 57.2604 107.391 55.9808 106.705C54.7012 106.019 53.7266 105.085 53.0568 103.903C52.3816 102.722 52.044 101.388 52.044 99.901C52.044 98.4254 52.3816 97.0968 53.0568 95.9152C53.7266 94.7282 54.7012 93.7916 55.9808 93.1056C57.2604 92.414 58.8123 92.0683 60.6364 92.0683ZM60.6364 95.6539C59.4548 95.6539 58.4583 95.8308 57.647 96.1847C56.8357 96.5332 56.2204 97.026 55.8011 97.6631C55.3819 98.3002 55.1722 99.0461 55.1722 99.901C55.1722 100.756 55.3819 101.502 55.8011 102.139C56.2204 102.776 56.8357 103.272 57.647 103.625C58.4583 103.974 59.4548 104.148 60.6364 104.148C61.8179 104.148 62.8144 103.974 63.6257 103.625C64.437 103.272 65.0523 102.776 65.4716 102.139C65.8909 101.502 66.1005 100.756 66.1005 99.901C66.1005 99.0461 65.8909 98.3002 65.4716 97.6631C65.0523 97.026 64.437 96.5332 63.6257 96.1847C62.8144 95.8308 61.8179 95.6539 60.6364 95.6539ZM69 89.4485L52.2727 89.4485L52.2727 85.9119L66.0842 85.9119L66.0842 78.7408L69 78.7408L69 89.4485Z" fill="#8AAAE5"/>
<path d="M497.779 265.509L492.455 265.509L492.455 240.422L497.779 240.422L497.779 249.773L523 249.773L523 256.157L497.779 256.157L497.779 265.509ZM531.591 235.112C531.591 235.918 531.526 236.673 531.397 237.379C531.278 238.075 531.124 238.652 530.935 239.109L526.192 237.678C526.42 236.932 526.545 236.261 526.565 235.664C526.585 235.058 526.445 234.536 526.147 234.098C525.849 233.651 525.342 233.288 524.626 233.009L523.656 232.636L500.091 240.854L500.091 234.173L516.915 229.43L516.915 229.191L500.091 224.403L500.091 217.677L525.476 226.581C526.709 227.009 527.783 227.59 528.697 228.326C529.622 229.052 530.333 229.972 530.83 231.085C531.337 232.199 531.591 233.541 531.591 235.112ZM531.591 214.425L500.091 214.425L500.091 208.161L503.939 208.161L503.939 207.878C503.322 207.599 502.696 207.197 502.06 206.67C501.413 206.133 500.876 205.437 500.449 204.582C500.011 203.717 499.793 202.643 499.793 201.36C499.793 199.69 500.23 198.148 501.105 196.737C501.97 195.325 503.278 194.196 505.028 193.351C506.768 192.506 508.95 192.083 511.575 192.083C514.131 192.083 516.288 192.496 518.048 193.321C519.798 194.136 521.126 195.25 522.031 196.662C522.925 198.064 523.373 199.635 523.373 201.375C523.373 202.608 523.169 203.657 522.761 204.522C522.354 205.377 521.842 206.078 521.225 206.625C520.599 207.172 519.967 207.589 519.331 207.878L519.331 208.072L531.591 208.072L531.591 214.425ZM511.545 208.206C512.908 208.206 514.096 208.017 515.11 207.639C516.124 207.261 516.915 206.714 517.482 205.999C518.038 205.283 518.317 204.413 518.317 203.388C518.317 202.354 518.033 201.479 517.467 200.763C516.89 200.048 516.094 199.506 515.08 199.138C514.056 198.76 512.878 198.571 511.545 198.571C510.223 198.571 509.06 198.755 508.055 199.123C507.051 199.491 506.266 200.033 505.699 200.749C505.132 201.464 504.849 202.344 504.849 203.388C504.849 204.423 505.122 205.298 505.669 206.013C506.216 206.719 506.991 207.261 507.996 207.639C509 208.017 510.183 208.206 511.545 208.206ZM523.447 177.407C523.447 179.763 522.97 181.792 522.016 183.492C521.051 185.183 519.689 186.485 517.929 187.4C516.159 188.315 514.066 188.772 511.65 188.772C509.293 188.772 507.225 188.315 505.445 187.4C503.665 186.485 502.278 185.197 501.284 183.537C500.29 181.866 499.793 179.908 499.793 177.661C499.793 176.149 500.036 174.742 500.523 173.44C501.001 172.127 501.722 170.984 502.686 170.009C503.651 169.025 504.864 168.259 506.325 167.712C507.777 167.165 509.477 166.892 511.426 166.892L513.171 166.892L513.171 186.237L509.234 186.237L509.234 172.873C508.319 172.873 507.509 173.072 506.803 173.469C506.097 173.867 505.545 174.419 505.147 175.125C504.739 175.821 504.536 176.631 504.536 177.556C504.536 178.521 504.759 179.376 505.207 180.121C505.644 180.857 506.236 181.434 506.982 181.852C507.717 182.269 508.538 182.483 509.442 182.493L513.186 182.493C514.32 182.493 515.299 182.284 516.124 181.866C516.95 181.439 517.586 180.837 518.033 180.062C518.481 179.286 518.705 178.366 518.705 177.303C518.705 176.597 518.605 175.95 518.406 175.364C518.207 174.777 517.909 174.275 517.511 173.857C517.114 173.44 516.626 173.121 516.05 172.903L516.437 167.026C517.849 167.325 519.082 167.936 520.136 168.861C521.18 169.776 521.996 170.959 522.582 172.411C523.159 173.852 523.447 175.518 523.447 177.407ZM501.239 146.056C500.036 146.175 499.102 146.687 498.435 147.592C497.769 148.497 497.436 149.725 497.436 151.276C497.436 152.33 497.585 153.22 497.884 153.946C498.172 154.672 498.575 155.229 499.092 155.616C499.609 155.994 500.195 156.183 500.852 156.183C501.398 156.203 501.876 156.089 502.283 155.84C502.691 155.582 503.044 155.229 503.342 154.781C503.631 154.334 503.884 153.817 504.103 153.23C504.312 152.643 504.491 152.017 504.64 151.351L505.296 148.607C505.594 147.274 505.992 146.051 506.489 144.937C506.986 143.824 507.598 142.859 508.324 142.044C509.05 141.229 509.905 140.597 510.889 140.15C511.874 139.692 513.002 139.459 514.275 139.449C516.144 139.459 517.765 139.936 519.137 140.881C520.499 141.815 521.558 143.168 522.314 144.937C523.06 146.697 523.433 148.82 523.433 151.306C523.433 153.772 523.055 155.92 522.299 157.749C521.543 159.569 520.425 160.991 518.943 162.015C517.452 163.029 515.607 163.561 513.41 163.611L513.41 157.362C514.434 157.292 515.289 156.999 515.975 156.482C516.651 155.955 517.163 155.254 517.511 154.379C517.849 153.494 518.018 152.494 518.018 151.381C518.018 150.287 517.859 149.337 517.541 148.532C517.223 147.717 516.781 147.085 516.214 146.638C515.647 146.19 514.996 145.967 514.26 145.967C513.574 145.967 512.997 146.17 512.53 146.578C512.062 146.976 511.665 147.562 511.337 148.338C511.009 149.104 510.71 150.043 510.442 151.157L509.607 154.483C508.98 157.058 508.001 159.092 506.668 160.583C505.336 162.075 503.541 162.815 501.284 162.805C499.435 162.815 497.819 162.323 496.437 161.329C495.055 160.325 493.976 158.947 493.2 157.197C492.425 155.447 492.037 153.459 492.037 151.232C492.037 148.964 492.425 146.986 493.2 145.295C493.976 143.595 495.055 142.273 496.437 141.328C497.819 140.384 499.42 139.896 501.239 139.866L501.239 146.056ZM523.447 124.873C523.447 127.22 522.95 129.238 521.956 130.929C520.952 132.609 519.56 133.902 517.78 134.807C516 135.702 513.952 136.149 511.635 136.149C509.288 136.149 507.23 135.697 505.46 134.792C503.68 133.877 502.293 132.579 501.299 130.899C500.295 129.219 499.793 127.22 499.793 124.903C499.793 122.905 500.156 121.155 500.881 119.653C501.607 118.152 502.626 116.964 503.939 116.089C505.251 115.214 506.793 114.731 508.562 114.642L508.562 120.638C507.419 120.807 506.499 121.254 505.803 121.98C505.097 122.696 504.744 123.635 504.744 124.799C504.744 125.783 505.013 126.643 505.55 127.379C506.077 128.105 506.847 128.672 507.861 129.079C508.876 129.487 510.104 129.691 511.545 129.691C513.007 129.691 514.25 129.492 515.274 129.094C516.298 128.687 517.079 128.115 517.616 127.379C518.153 126.643 518.421 125.783 518.421 124.799C518.421 124.073 518.272 123.422 517.974 122.845C517.675 122.258 517.243 121.776 516.676 121.398C516.099 121.01 515.408 120.757 514.603 120.638L514.603 114.642C516.353 114.741 517.894 115.219 519.227 116.074C520.549 116.919 521.583 118.087 522.329 119.579C523.075 121.07 523.447 122.835 523.447 124.873ZM523 110.574L500.091 110.574L500.091 104.414L504.088 104.414L504.088 104.175C502.666 103.758 501.592 103.057 500.866 102.072C500.131 101.088 499.763 99.9545 499.763 98.6719C499.763 98.3537 499.783 98.0107 499.822 97.6428C499.862 97.2749 499.917 96.9517 499.986 96.6733L505.624 96.6733C505.535 96.9716 505.455 97.3842 505.386 97.9112C505.316 98.4382 505.281 98.9205 505.281 99.358C505.281 100.293 505.485 101.128 505.893 101.864C506.29 102.589 506.847 103.166 507.563 103.594C508.279 104.011 509.104 104.22 510.039 104.22L523 104.22L523 110.574ZM523 93.3883L500.091 93.3883L500.091 87.0346L523 87.0346L523 93.3883ZM497.138 90.1966C497.138 91.1412 496.825 91.9515 496.198 92.6277C495.562 93.2939 494.801 93.627 493.916 93.627C493.041 93.627 492.29 93.2939 491.664 92.6277C491.028 91.9515 490.71 91.1412 490.71 90.1966C490.71 89.252 491.028 88.4466 491.664 87.7804C492.29 87.1042 493.041 86.7662 493.916 86.7662C494.801 86.7662 495.562 87.1042 496.198 87.7804C496.825 88.4466 497.138 89.252 497.138 90.1966ZM531.591 81.945L500.091 81.945L500.091 75.6808L503.939 75.6808L503.939 75.3974C503.322 75.119 502.696 74.7163 502.06 74.1893C501.413 73.6523 500.876 72.9563 500.449 72.1012C500.011 71.2361 499.793 70.1623 499.793 68.8796C499.793 67.2092 500.23 65.668 501.105 64.256C501.97 62.8441 503.278 61.7156 505.028 60.8704C506.768 60.0252 508.95 59.6026 511.575 59.6026C514.131 59.6026 516.288 60.0153 518.048 60.8406C519.798 61.6559 521.126 62.7695 522.031 64.1815C522.925 65.5834 523.373 67.1545 523.373 68.8945C523.373 70.1275 523.169 71.1765 522.761 72.0415C522.354 72.8967 521.842 73.5977 521.225 74.1445C520.599 74.6914 519.967 75.109 519.331 75.3974L519.331 75.5913L531.591 75.5913L531.591 81.945ZM511.545 75.7255C512.908 75.7255 514.096 75.5366 515.11 75.1587C516.124 74.7809 516.915 74.234 517.482 73.5181C518.038 72.8022 518.317 71.9322 518.317 70.908C518.317 69.8739 518.033 68.9989 517.467 68.283C516.89 67.5671 516.094 67.0252 515.08 66.6573C514.056 66.2795 512.878 66.0906 511.545 66.0906C510.223 66.0906 509.06 66.2745 508.055 66.6424C507.051 67.0103 506.266 67.5522 505.699 68.2681C505.132 68.984 504.849 69.864 504.849 70.908C504.849 71.9421 505.122 72.8171 505.669 73.533C506.216 74.239 506.991 74.7809 507.996 75.1587C509 75.5366 510.183 75.7255 511.545 75.7255ZM500.091 43.1815L504.864 43.1815L504.864 56.9776L500.091 56.9776L500.091 43.1815ZM494.602 53.8455L494.602 47.4918L515.96 47.4918C516.547 47.4918 517.004 47.4023 517.332 47.2234C517.651 47.0444 517.874 46.7958 518.004 46.4776C518.133 46.1495 518.197 45.7717 518.197 45.3441C518.197 45.0458 518.173 44.7475 518.123 44.4492C518.063 44.1509 518.018 43.9222 517.989 43.7631L522.717 42.7638C522.816 43.082 522.93 43.5295 523.06 44.1062C523.199 44.6829 523.283 45.3839 523.313 46.2092C523.373 47.7404 523.169 49.0827 522.702 50.2361C522.234 51.3796 521.509 52.2695 520.524 52.9059C519.54 53.5423 518.297 53.8555 516.795 53.8455L494.602 53.8455Z" fill="#4A4A4A"/>
<path d="M327 339.472L297.909 339.472L297.909 327.994C297.909 325.788 298.33 323.908 299.173 322.355C300.007 320.802 301.167 319.618 302.653 318.804C304.131 317.98 305.835 317.568 307.767 317.568C309.699 317.568 311.403 317.985 312.881 318.818C314.358 319.652 315.509 320.859 316.332 322.44C317.156 324.012 317.568 325.916 317.568 328.151L317.568 335.466L312.639 335.466L312.639 329.145C312.639 327.961 312.436 326.986 312.028 326.219C311.612 325.442 311.039 324.865 310.31 324.486C309.571 324.098 308.723 323.903 307.767 323.903C306.801 323.903 305.958 324.098 305.239 324.486C304.509 324.865 303.946 325.442 303.548 326.219C303.141 326.995 302.937 327.98 302.937 329.173L302.937 333.321L327 333.321L327 339.472ZM335.182 309.951C335.182 310.718 335.12 311.438 334.997 312.11C334.884 312.773 334.737 313.322 334.557 313.758L330.04 312.394C330.258 311.684 330.376 311.045 330.395 310.477C330.414 309.899 330.281 309.402 329.997 308.985C329.713 308.559 329.23 308.213 328.548 307.948L327.625 307.593L305.182 315.42L305.182 309.056L321.205 304.539L321.205 304.312L305.182 299.752L305.182 293.346L329.358 301.826C330.532 302.233 331.555 302.787 332.426 303.488C333.307 304.179 333.984 305.055 334.457 306.116C334.94 307.176 335.182 308.455 335.182 309.951ZM305.182 278.644L309.727 278.644L309.727 291.783L305.182 291.783L305.182 278.644ZM299.955 288.8L299.955 282.749L320.295 282.749C320.854 282.749 321.29 282.664 321.602 282.494C321.905 282.323 322.118 282.086 322.241 281.783C322.365 281.471 322.426 281.111 322.426 280.704C322.426 280.42 322.402 280.136 322.355 279.852C322.298 279.567 322.256 279.35 322.227 279.198L326.73 278.246C326.825 278.549 326.934 278.976 327.057 279.525C327.189 280.074 327.27 280.742 327.298 281.528C327.355 282.986 327.161 284.264 326.716 285.363C326.271 286.452 325.58 287.299 324.642 287.906C323.705 288.512 322.521 288.81 321.091 288.8L299.955 288.8ZM314.386 268.183L327 268.183L327 274.234L297.909 274.234L297.909 268.353L309.031 268.353L309.031 268.097C307.743 267.605 306.735 266.809 306.006 265.711C305.267 264.612 304.898 263.235 304.898 261.577C304.898 260.062 305.229 258.741 305.892 257.614C306.545 256.478 307.488 255.597 308.719 254.972C309.94 254.338 311.403 254.025 313.108 254.035L327 254.035L327 260.086L314.187 260.086C312.843 260.076 311.796 260.417 311.048 261.109C310.3 261.79 309.926 262.747 309.926 263.978C309.926 264.802 310.101 265.531 310.452 266.165C310.802 266.79 311.313 267.283 311.986 267.643C312.649 267.993 313.449 268.173 314.386 268.183ZM327.426 239.415C327.426 241.621 326.957 243.529 326.02 245.139C325.073 246.74 323.757 247.975 322.071 248.847C320.376 249.718 318.411 250.153 316.176 250.153C313.922 250.153 311.953 249.718 310.267 248.847C308.572 247.975 307.256 246.74 306.318 245.139C305.371 243.529 304.898 241.621 304.898 239.415C304.898 237.208 305.371 235.305 306.318 233.705C307.256 232.095 308.572 230.854 310.267 229.983C311.953 229.112 313.922 228.676 316.176 228.676C318.411 228.676 320.376 229.112 322.071 229.983C323.757 230.854 325.073 232.095 326.02 233.705C326.957 235.305 327.426 237.208 327.426 239.415ZM322.739 239.386C322.739 238.383 322.455 237.545 321.886 236.872C321.309 236.2 320.523 235.693 319.528 235.352C318.534 235.002 317.402 234.827 316.134 234.827C314.865 234.827 313.733 235.002 312.739 235.352C311.744 235.693 310.958 236.2 310.381 236.872C309.803 237.545 309.514 238.383 309.514 239.386C309.514 240.4 309.803 241.252 310.381 241.943C310.958 242.625 311.744 243.141 312.739 243.491C313.733 243.832 314.865 244.003 316.134 244.003C317.402 244.003 318.534 243.832 319.528 243.491C320.523 243.141 321.309 242.625 321.886 241.943C322.455 241.252 322.739 240.4 322.739 239.386ZM314.386 218.69L327 218.69L327 224.741L305.182 224.741L305.182 218.974L309.031 218.974L309.031 218.719C307.762 218.236 306.759 217.426 306.02 216.29C305.272 215.153 304.898 213.776 304.898 212.156C304.898 210.641 305.229 209.32 305.892 208.193C306.555 207.066 307.502 206.19 308.733 205.565C309.955 204.94 311.413 204.628 313.108 204.628L327 204.628L327 210.679L314.187 210.679C312.852 210.67 311.811 211.01 311.062 211.702C310.305 212.393 309.926 213.345 309.926 214.557C309.926 215.371 310.101 216.091 310.452 216.716C310.802 217.331 311.313 217.814 311.986 218.165C312.649 218.506 313.449 218.681 314.386 218.69Z" fill="#7447FE"/>
</svg>
